<?xml version="1.0" encoding="UTF-8" standalone="no"?>
<!-- Created with Inkscape (http://www.inkscape.org/) -->

<svg
   version="1.1"
   id="svg2"
   xml:space="preserve"
   width="1600"
   height="1200"
   viewBox="0 0 1600 1200"
   sodipodi:docname="2745a2b3d8ce3aa978f5adc43868ea21.eps"
   xmlns:inkscape="http://www.inkscape.org/namespaces/inkscape"
   xmlns:sodipodi="http://sodipodi.sourceforge.net/DTD/sodipodi-0.dtd"
   xmlns="http://www.w3.org/2000/svg"
   xmlns:svg="http://www.w3.org/2000/svg"><defs
     id="defs6" /><sodipodi:namedview
     id="namedview4"
     pagecolor="#ffffff"
     bordercolor="#666666"
     borderopacity="1.0"
     inkscape:pageshadow="2"
     inkscape:pageopacity="0.0"
     inkscape:pagecheckerboard="0" /><g
     id="g8"
     inkscape:groupmode="layer"
     inkscape:label="ink_ext_XXXXXX"
     transform="matrix(1.3333333,0,0,-1.3333333,0,1200)"><g
       id="g10"
       transform="scale(0.1)"><path
         d="M 0,0 H 12000 V 9000 H 0 Z"
         style="fill:#ffffff;fill-opacity:1;fill-rule:nonzero;stroke:none"
         id="path12" /><path
         d="M 1040,7980 H 330 v 710 h 710 v -710"
         style="fill:#eff1f7;fill-opacity:1;fill-rule:nonzero;stroke:none"
         id="path14" /><path
         d="m 633.359,8240.66 c -13.793,7.13 -24.449,17.12 -31.949,29.95 -7.504,12.83 -11.254,27.71 -11.254,44.66 v 89.68 c 0,16.94 3.75,31.82 11.254,44.66 7.5,12.82 18.156,22.75 31.949,29.77 13.797,7.01 29.778,10.52 47.926,10.52 17.91,0 33.77,-3.38 47.563,-10.16 13.797,-6.78 24.445,-16.34 31.953,-28.69 7.496,-12.34 11.254,-26.62 11.254,-42.84 0,-2.42 -1.817,-3.87 -5.45,-4.35 l -30.859,-1.82 h -1.449 c -2.906,0 -4.359,0.6 -4.359,1.82 v 2.18 c 0,14.27 -4.418,25.77 -13.254,34.49 -8.836,8.71 -20.633,13.07 -35.399,13.07 -14.765,0 -26.629,-4.36 -35.578,-13.07 -8.961,-8.72 -13.437,-20.22 -13.437,-34.49 v -92.59 c 0,-14.04 4.476,-25.41 13.437,-34.12 8.949,-8.72 20.813,-13.08 35.578,-13.08 14.766,0 26.563,4.3 35.399,12.89 8.836,8.59 13.254,20.03 13.254,34.31 0,1.21 0.546,2.24 1.632,3.09 1.09,0.84 2.485,1.15 4.176,0.91 l 30.5,-1.45 c 3.867,-0.49 5.809,-1.09 5.809,-1.82 v -1.82 c 0,-16.46 -3.758,-30.92 -11.254,-43.38 -7.508,-12.47 -18.156,-22.09 -31.953,-28.87 -13.793,-6.77 -29.653,-10.16 -47.563,-10.16 -18.148,0 -34.129,3.57 -47.926,10.71"
         style="fill:#87a0f9;fill-opacity:1;fill-rule:nonzero;stroke:none"
         id="path16" /><path
         d="m 914.918,8273.88 c 6.41,5.08 10.949,12.22 13.617,21.42 2.66,7.74 3.992,17.91 3.992,30.5 0,11.85 -1.214,22.02 -3.632,30.49 -2.665,9.2 -7.325,16.28 -13.977,21.25 -6.656,4.96 -14.586,7.44 -23.781,7.44 -9.199,0 -17.067,-2.48 -23.598,-7.44 -6.531,-4.97 -11.137,-12.05 -13.801,-21.25 -2.422,-8.47 -3.625,-18.64 -3.625,-30.49 0,-11.86 1.203,-22.03 3.625,-30.5 2.664,-9.2 7.321,-16.34 13.981,-21.42 6.656,-5.09 14.707,-7.63 24.144,-7.63 8.953,0 16.637,2.54 23.055,7.63 z m -72.434,-29.41 c -13.793,9.68 -23.359,23.11 -28.679,40.3 -4.117,11.86 -6.172,25.66 -6.172,41.39 0,15.49 1.933,29.29 5.808,41.39 5.567,16.94 15.25,30.14 29.043,39.58 13.801,9.43 30.375,14.16 49.743,14.16 18.394,0 34.312,-4.73 47.746,-14.16 13.429,-9.44 22.925,-22.52 28.5,-39.22 4.355,-11.62 6.531,-25.41 6.531,-41.39 0,-15.25 -2.055,-29.04 -6.172,-41.39 -5.566,-17.18 -15.125,-30.68 -28.68,-40.48 -13.554,-9.8 -29.656,-14.7 -48.289,-14.7 -19.125,0 -35.578,4.84 -49.379,14.52"
         style="fill:#87a0f9;fill-opacity:1;fill-rule:nonzero;stroke:none"
         id="path18" /><path
         d="m 1257.29,8404.4 c 10.53,-11.26 15.8,-26.93 15.8,-47.02 v -118.72 c 0,-3.87 -1.95,-5.81 -5.81,-5.81 h -30.14 c -3.87,0 -5.81,1.94 -5.81,5.81 v 110.01 c 0,11.13 -2.97,19.97 -8.89,26.51 -5.94,6.53 -13.86,9.8 -23.78,9.8 -9.93,0 -18.04,-3.27 -24.33,-9.8 -6.3,-6.54 -9.44,-15.25 -9.44,-26.14 v -110.38 c 0,-3.87 -1.94,-5.81 -5.81,-5.81 h -30.13 c -3.88,0 -5.82,1.94 -5.82,5.81 v 110.01 c 0,11.13 -3.02,19.97 -9.07,26.51 -6.05,6.53 -14.04,9.8 -23.96,9.8 -9.21,0 -16.77,-2.67 -22.69,-7.99 -5.94,-5.33 -9.39,-12.59 -10.35,-21.78 v -116.55 c 0,-3.87 -1.94,-5.81 -5.81,-5.81 h -30.5 c -3.87,0 -5.81,1.94 -5.81,5.81 v 173.91 c 0,3.87 1.94,5.81 5.81,5.81 h 30.5 c 3.87,0 5.81,-1.94 5.81,-5.81 v -9.8 c 0,-0.97 0.3,-1.58 0.9,-1.82 0.61,-0.24 1.15,0.12 1.64,1.09 10.4,12.83 25.65,19.25 45.75,19.25 11.85,0 22.2,-2.36 31.04,-7.09 8.83,-4.72 15.67,-11.68 20.51,-20.87 l 1.64,-1.09 c 0.6,0 1.02,0.48 1.26,1.45 5.57,9.2 13.08,16.1 22.51,20.7 9.45,4.59 19.85,6.9 31.23,6.9 18.64,0 33.22,-5.63 43.75,-16.89"
         style="fill:#87a0f9;fill-opacity:1;fill-rule:nonzero;stroke:none"
         id="path20" /><path
         d="m 1436.46,8325.8 c 0,17.42 -2.9,31.22 -8.71,41.39 -6.3,11.61 -16.47,17.42 -30.5,17.42 -12.1,0 -21.55,-5.68 -28.32,-17.06 -5.57,-9.44 -8.35,-23.48 -8.35,-42.11 0,-18.89 3.02,-33.29 9.08,-43.21 6.53,-10.65 15.61,-15.98 27.23,-15.98 12.58,0 22.27,5.09 29.04,15.25 7.02,10.65 10.53,25.42 10.53,44.3 z m 43.57,-0.73 c 0,-17.19 -2.06,-31.95 -6.17,-44.29 -5.33,-15.98 -13.92,-28.44 -25.78,-37.4 -11.86,-8.95 -26.63,-13.43 -44.3,-13.43 -16.94,0 -30.74,5.93 -41.38,17.79 l -1.64,0.91 c -0.6,-0.13 -0.91,-0.68 -0.91,-1.64 v -76.97 c 0,-3.87 -1.93,-5.81 -5.8,-5.81 h -30.5 c -3.88,0 -5.81,1.94 -5.81,5.81 v 242.53 c 0,3.87 1.93,5.81 5.81,5.81 h 30.5 c 3.87,0 5.8,-1.94 5.8,-5.81 v -9.44 c 0,-0.97 0.31,-1.58 0.91,-1.82 0.6,-0.24 1.15,0.13 1.64,1.1 10.4,12.57 24.2,18.88 41.38,18.88 16.95,0 31.47,-4.54 43.57,-13.62 12.1,-9.08 20.82,-21.48 26.15,-37.22 4.35,-13.31 6.53,-28.44 6.53,-45.38"
         style="fill:#87a0f9;fill-opacity:1;fill-rule:nonzero;stroke:none"
         id="path22" /><path
         d="m 1632.88,8418.38 h 30.14 c 3.86,0 5.81,-1.94 5.81,-5.81 v -173.91 c 0,-3.87 -1.95,-5.81 -5.81,-5.81 h -30.14 c -3.87,0 -5.8,1.94 -5.8,5.81 v 9.44 c 0,0.96 -0.31,1.57 -0.91,1.82 -0.61,0.24 -1.16,-0.13 -1.64,-1.09 -9.68,-12.35 -24.45,-18.52 -44.29,-18.52 -18.4,0 -33.83,5.32 -46.29,15.98 -12.47,10.64 -18.7,25.78 -18.7,45.38 v 120.9 c 0,3.87 1.93,5.81 5.81,5.81 h 30.5 c 3.86,0 5.8,-1.94 5.8,-5.81 v -108.92 c 0,-11.38 2.97,-20.45 8.9,-27.23 5.93,-6.78 14.22,-10.17 24.87,-10.17 10.89,0 19.61,3.39 26.14,10.17 6.54,6.78 9.81,15.85 9.81,27.23 v 108.92 c 0,3.87 1.93,5.81 5.8,5.81"
         style="fill:#87a0f9;fill-opacity:1;fill-rule:nonzero;stroke:none"
         id="path24" /><path
         d="m 1806.42,8384.25 h -35.22 c -1.45,0 -2.18,-0.72 -2.18,-2.18 v -85.68 c 0,-9.44 2,-16.22 5.99,-20.34 4,-4.11 10.35,-6.17 19.07,-6.17 h 9.44 c 3.87,0 5.81,-1.93 5.81,-5.8 v -24.33 c 0,-3.87 -1.94,-5.93 -5.81,-6.17 l -17.43,-0.37 c -19.12,0 -33.4,3.33 -42.84,9.99 -9.44,6.66 -14.29,19.06 -14.52,37.21 v 101.66 c 0,1.46 -0.73,2.18 -2.18,2.18 h -18.88 c -3.88,0 -5.81,1.94 -5.81,5.81 v 22.51 c 0,3.87 1.93,5.81 5.81,5.81 h 18.88 c 1.45,0 2.18,0.73 2.18,2.18 v 40.66 c 0,3.87 1.93,5.81 5.8,5.81 h 28.69 c 3.86,0 5.8,-1.94 5.8,-5.81 v -40.66 c 0,-1.45 0.73,-2.18 2.18,-2.18 h 35.22 c 3.87,0 5.81,-1.94 5.81,-5.81 v -22.51 c 0,-3.87 -1.94,-5.81 -5.81,-5.81"
         style="fill:#87a0f9;fill-opacity:1;fill-rule:nonzero;stroke:none"
         id="path26" /><path
         d="m 1899.18,8378.26 c -5.93,-4.48 -9.98,-10.71 -12.16,-18.7 -1.69,-4.84 -2.66,-9.93 -2.9,-15.25 -0.24,-1.45 0.36,-2.18 1.81,-2.18 h 72.98 c 1.45,0 2.18,0.73 2.18,2.18 -0.97,7.27 -1.7,11.62 -2.18,13.07 -2.18,8.48 -6.48,15.19 -12.89,20.16 -6.42,4.96 -14.46,7.44 -24.14,7.44 -9.2,0 -16.77,-2.25 -22.7,-6.72 z m 53.38,-107.1 c 6.65,3.5 12.03,8.29 16.16,14.34 1.2,1.93 2.77,2.9 4.71,2.9 1.21,0 2.3,-0.36 3.27,-1.09 l 17.43,-13.79 c 1.69,-1.7 2.54,-3.27 2.54,-4.73 0,-0.96 -0.36,-2.05 -1.09,-3.26 -7.02,-11.14 -16.58,-19.85 -28.68,-26.14 -12.11,-6.3 -26.02,-9.44 -41.75,-9.44 -19.13,0 -35.16,4.54 -48.11,13.62 -12.95,9.07 -22.33,21.72 -28.14,37.93 -4.84,13.31 -7.26,28.32 -7.26,45.02 0,16.7 1.33,29.53 3.99,38.49 4.6,17.18 13.68,30.86 27.23,41.03 13.56,10.16 30.02,15.25 49.38,15.25 45.26,0 71.76,-24.82 79.51,-74.43 1.21,-7.99 2.06,-17.92 2.55,-29.77 0,-3.88 -1.95,-5.82 -5.81,-5.82 h -112.56 c -1.45,0 -2.18,-0.72 -2.18,-2.17 0,-6.54 0.73,-11.86 2.18,-15.98 2.66,-8.71 7.75,-15.49 15.25,-20.33 7.5,-4.84 16.82,-7.26 27.96,-7.26 8.95,0.24 16.76,2.11 23.42,5.63"
         style="fill:#87a0f9;fill-opacity:1;fill-rule:nonzero;stroke:none"
         id="path28" /><path
         d="m 2148.43,8416.56 c 2.91,-1.45 4,-3.87 3.27,-7.26 l -5.81,-30.13 c -0.25,-1.94 -0.91,-3.15 -2,-3.63 -1.09,-0.49 -2.72,-0.49 -4.9,0 -2.9,0.96 -6.78,1.45 -11.62,1.45 -2.9,0 -5.2,-0.12 -6.9,-0.36 -10.16,-0.49 -18.63,-4.06 -25.41,-10.71 -6.78,-6.66 -10.17,-15.31 -10.17,-25.96 v -101.3 c 0,-3.87 -1.94,-5.81 -5.8,-5.81 h -30.5 c -3.88,0 -5.81,1.94 -5.81,5.81 v 173.91 c 0,3.87 1.93,5.81 5.81,5.81 h 30.5 c 3.86,0 5.8,-1.94 5.8,-5.81 v -14.16 c 0,-0.97 0.24,-1.57 0.73,-1.81 0.48,-0.24 0.97,0.11 1.46,1.09 10.16,15.24 24.19,22.87 42.11,22.87 7.02,0 13.43,-1.34 19.24,-4"
         style="fill:#87a0f9;fill-opacity:1;fill-rule:nonzero;stroke:none"
         id="path30" /><path
         d="m 2316.53,8237.57 -75.16,242.89 c -0.24,0.49 -0.36,1.22 -0.36,2.18 0,2.91 1.69,4.36 5.08,4.36 h 33.04 c 3.38,0 5.57,-1.57 6.53,-4.72 l 53.74,-187.71 c 0.48,-0.96 1.02,-1.45 1.64,-1.45 0.6,0 1.02,0.49 1.26,1.45 l 53.37,187.35 c 0.73,3.38 2.91,5.08 6.54,5.08 h 32.31 c 1.94,0 3.33,-0.61 4.18,-1.81 0.85,-1.22 1.03,-2.79 0.54,-4.73 L 2363,8237.57 c -0.97,-3.14 -3.15,-4.72 -6.54,-4.72 h -33.4 c -3.39,0 -5.57,1.58 -6.53,4.72"
         style="fill:#87a0f9;fill-opacity:1;fill-rule:nonzero;stroke:none"
         id="path32" /><path
         d="m 2476.27,8238.66 v 173.91 c 0,3.87 1.94,5.81 5.81,5.81 h 30.5 c 3.87,0 5.81,-1.94 5.81,-5.81 v -173.91 c 0,-3.87 -1.94,-5.81 -5.81,-5.81 h -30.5 c -3.87,0 -5.81,1.94 -5.81,5.81 z m 1.45,210.4 c -5.08,4.96 -7.62,11.31 -7.62,19.06 0,7.74 2.54,14.03 7.62,18.88 5.09,4.84 11.63,7.26 19.61,7.26 7.99,0 14.46,-2.42 19.43,-7.26 4.95,-4.85 7.44,-11.14 7.44,-18.88 0,-7.75 -2.49,-14.1 -7.44,-19.06 -4.97,-4.96 -11.44,-7.44 -19.43,-7.44 -7.98,0 -14.52,2.48 -19.61,7.44"
         style="fill:#87a0f9;fill-opacity:1;fill-rule:nonzero;stroke:none"
         id="path34" /><path
         d="m 2595.18,8237.39 c -11.5,4.48 -20.4,10.65 -26.69,18.52 -6.3,7.86 -9.44,16.63 -9.44,26.32 v 1.81 c 0,3.87 1.94,5.82 5.81,5.82 h 29.05 c 3.86,0 5.8,-0.86 5.8,-2.55 v -2.54 c 0,-6.06 3.33,-11.32 9.99,-15.79 6.65,-4.48 15.07,-6.72 25.23,-6.72 9.68,0 17.55,2 23.6,5.99 6.05,4 9.08,9.02 9.08,15.07 0,5.56 -2.49,9.74 -7.44,12.52 -4.97,2.79 -13.02,5.75 -24.15,8.9 l -13.8,4.36 c -12.34,3.63 -22.75,7.5 -31.22,11.61 -8.48,4.12 -15.61,9.74 -21.42,16.89 -5.81,7.13 -8.72,16.27 -8.72,27.41 0,16.94 6.6,30.44 19.79,40.48 13.19,10.04 30.68,15.07 52.47,15.07 14.76,0 27.71,-2.36 38.84,-7.08 11.14,-4.72 19.79,-11.26 25.96,-19.61 6.18,-8.35 9.26,-17.85 9.26,-28.5 0,-1.21 -0.54,-2.24 -1.63,-3.08 -1.09,-0.85 -2.49,-1.27 -4.18,-1.27 h -27.95 c -3.88,0 -5.81,0.72 -5.81,2.18 v 2.17 c 0,6.29 -3.09,11.56 -9.26,15.8 -6.17,4.23 -14.59,6.35 -25.23,6.35 -9.44,0 -17.13,-1.76 -23.06,-5.26 -5.93,-3.51 -8.89,-8.42 -8.89,-14.71 0,-5.81 2.78,-10.23 8.35,-13.25 5.56,-3.03 14.88,-6.35 27.95,-9.99 l 8.36,-2.18 c 13.06,-3.87 23.96,-7.74 32.67,-11.61 8.71,-3.88 16.09,-9.44 22.14,-16.7 6.05,-7.27 9.08,-16.58 9.08,-27.96 0,-17.19 -6.78,-30.68 -20.33,-40.48 -13.56,-9.8 -31.59,-14.7 -54.1,-14.7 -15.25,0 -28.62,2.23 -40.11,6.71"
         style="fill:#87a0f9;fill-opacity:1;fill-rule:nonzero;stroke:none"
         id="path36" /><path
         d="m 2748.2,8238.66 v 173.91 c 0,3.87 1.94,5.81 5.81,5.81 h 30.5 c 3.87,0 5.81,-1.94 5.81,-5.81 v -173.91 c 0,-3.87 -1.94,-5.81 -5.81,-5.81 h -30.5 c -3.87,0 -5.81,1.94 -5.81,5.81 z m 1.45,210.4 c -5.08,4.96 -7.62,11.31 -7.62,19.06 0,7.74 2.54,14.03 7.62,18.88 5.09,4.84 11.62,7.26 19.61,7.26 7.99,0 14.46,-2.42 19.43,-7.26 4.95,-4.85 7.44,-11.14 7.44,-18.88 0,-7.75 -2.49,-14.1 -7.44,-19.06 -4.97,-4.96 -11.44,-7.44 -19.43,-7.44 -7.99,0 -14.52,2.48 -19.61,7.44"
         style="fill:#87a0f9;fill-opacity:1;fill-rule:nonzero;stroke:none"
         id="path38" /><path
         d="m 2940.08,8273.88 c 6.41,5.08 10.95,12.22 13.62,21.42 2.66,7.74 3.99,17.91 3.99,30.5 0,11.85 -1.22,22.02 -3.63,30.49 -2.67,9.2 -7.33,16.28 -13.98,21.25 -6.66,4.96 -14.59,7.44 -23.78,7.44 -9.2,0 -17.07,-2.48 -23.6,-7.44 -6.53,-4.97 -11.14,-12.05 -13.8,-21.25 -2.42,-8.47 -3.63,-18.64 -3.63,-30.49 0,-11.86 1.21,-22.03 3.63,-30.5 2.66,-9.2 7.32,-16.34 13.98,-21.42 6.66,-5.09 14.71,-7.63 24.15,-7.63 8.95,0 16.63,2.54 23.05,7.63 z m -72.43,-29.41 c -13.8,9.68 -23.36,23.11 -28.69,40.3 -4.11,11.86 -6.17,25.66 -6.17,41.39 0,15.49 1.94,29.29 5.81,41.39 5.57,16.94 15.25,30.14 29.05,39.58 13.8,9.43 30.37,14.16 49.74,14.16 18.39,0 34.31,-4.73 47.74,-14.16 13.43,-9.44 22.93,-22.52 28.5,-39.22 4.36,-11.62 6.54,-25.41 6.54,-41.39 0,-15.25 -2.06,-29.04 -6.18,-41.39 -5.56,-17.18 -15.12,-30.68 -28.68,-40.48 -13.55,-9.8 -29.65,-14.7 -48.28,-14.7 -19.13,0 -35.58,4.84 -49.38,14.52"
         style="fill:#87a0f9;fill-opacity:1;fill-rule:nonzero;stroke:none"
         id="path40" /><path
         d="m 3176.44,8403.86 c 11.73,-11.62 17.6,-27.48 17.6,-47.57 v -117.63 c 0,-3.87 -1.94,-5.81 -5.8,-5.81 h -30.5 c -3.88,0 -5.81,1.94 -5.81,5.81 v 108.92 c 0,11.13 -3.21,20.15 -9.63,27.05 -6.41,6.9 -14.82,10.35 -25.22,10.35 -10.41,0 -18.83,-3.39 -25.24,-10.17 -6.42,-6.78 -9.62,-15.73 -9.62,-26.86 v -109.29 c 0,-3.87 -1.94,-5.81 -5.81,-5.81 h -30.5 c -3.87,0 -5.81,1.94 -5.81,5.81 v 173.91 c 0,3.87 1.94,5.81 5.81,5.81 h 30.5 c 3.87,0 5.81,-1.94 5.81,-5.81 v -9.8 c 0,-0.97 0.24,-1.58 0.72,-1.82 l 1.46,0.73 c 10.17,13.07 25.05,19.61 44.65,19.61 19.85,0 35.64,-5.82 47.39,-17.43"
         style="fill:#87a0f9;fill-opacity:1;fill-rule:nonzero;stroke:none"
         id="path42" /><path
         d="m 2265.87,1169.15 c 1203.18,63.3 2413.77,261.38 3616.51,194.25 781.15,-43.61 1561.73,-114.72 2345.22,-100.35 783.48,14.35 2082.4,119.93 2746.5,403.1 190.9,81.43 386.7,200.02 383.8,353.32 -4.3,237.23 -448.6,337.93 -797.4,338.21 -1059.9,0.83 -2566.11,-301.04 -3611.94,-418.37 -1312.54,-147.25 -2495.83,67.33 -3738.19,327.51 -393.62,82.43 -772.97,138.47 -1186.32,99.78 C 1617.93,2328.58 644.52,2204.02 642.035,1879.31 637.844,1332.2 1734.89,1141.22 2265.87,1169.15"
         style="fill:#eff1f7;fill-opacity:1;fill-rule:nonzero;stroke:none"
         id="path44" /><path
         d="m 1954.56,3478.38 c -205.62,230.64 -32.71,415.16 -1.96,761.13 30.75,345.97 -217.66,530.49 -507.42,530.49 -267.26,0 -538.176,-184.52 -507.422,-530.49 30.754,-345.97 203.662,-530.49 -1.961,-761.13 -205.621,-230.65 -359.387,-916.06 509.383,-916.06 868.77,0 715.01,685.41 509.38,916.06"
         style="fill:#c2cef9;fill-opacity:1;fill-rule:nonzero;stroke:none"
         id="path46" /><path
         d="m 1445.18,1819.76 c -5.52,0 -10,4.47 -10,10 v 2326.35 c 0,5.53 4.48,10 10,10 5.52,0 10,-4.47 10,-10 V 1829.76 c 0,-5.53 -4.48,-10 -10,-10"
         style="fill:#87a0f9;fill-opacity:1;fill-rule:nonzero;stroke:none"
         id="path48" /><path
         d="m 1425.78,3778.59 c -43.24,0 -145.69,6.81 -210.04,66.7 -36.08,33.59 -54.37,78.63 -54.37,133.89 0,5.53 4.48,10 10,10 5.52,0 10,-4.47 10,-10 0,-49.45 16.13,-89.56 47.95,-119.2 75.06,-69.92 213.74,-60.95 215.15,-60.87 5.74,0.44 10.29,-3.76 10.68,-9.26 0.4,-5.5 -3.75,-10.29 -9.25,-10.68 -1.27,-0.1 -8.6,-0.58 -20.12,-0.58"
         style="fill:#87a0f9;fill-opacity:1;fill-rule:nonzero;stroke:none"
         id="path50" /><path
         d="m 1480.83,3043.64 c -21.11,0 -34.8,1.4 -36.73,1.6 -5.49,0.6 -9.45,5.53 -8.86,11.02 0.59,5.5 5.57,9.45 11.01,8.87 1.67,-0.18 166.97,-16.79 269.25,75.07 54.09,48.58 81.52,119.19 81.52,209.88 0,5.53 4.48,10 10,10 5.52,0 10,-4.47 10,-10 0,-96.65 -29.69,-172.3 -88.25,-224.85 -79.58,-71.39 -190.86,-81.59 -247.94,-81.59"
         style="fill:#87a0f9;fill-opacity:1;fill-rule:nonzero;stroke:none"
         id="path52" /><path
         d="m 10675.4,3585.2 c -207.8,233 -33.1,419.4 -2,768.9 31.1,349.5 -219.9,535.9 -512.6,535.9 -269.99,0 -543.68,-186.4 -512.62,-535.9 31.08,-349.5 205.75,-535.9 -1.97,-768.9 -207.72,-233 -363.06,-925.41 514.59,-925.41 877.6,0 722.3,692.41 514.6,925.41"
         style="fill:#c2cef9;fill-opacity:1;fill-rule:nonzero;stroke:none"
         id="path54" /><path
         d="m 10160.8,1909.76 c -5.5,0 -10,4.47 -10,10 v 2350.08 c 0,5.53 4.5,10 10,10 5.5,0 10,-4.47 10,-10 V 1919.76 c 0,-5.53 -4.5,-10 -10,-10"
         style="fill:#87a0f9;fill-opacity:1;fill-rule:nonzero;stroke:none"
         id="path56" /><path
         d="m 10141.2,3888.57 c -43.7,0 -147.14,6.88 -212.12,67.36 -36.42,33.9 -54.89,79.38 -54.89,135.18 0,5.53 4.47,10 10,10 5.53,0 10,-4.47 10,-10 0,-49.99 16.31,-90.53 48.48,-120.49 75.83,-70.69 216.03,-61.61 217.43,-61.52 5.3,0.39 10.3,-3.75 10.7,-9.26 0.4,-5.5 -3.8,-10.29 -9.3,-10.68 -1.3,-0.1 -8.7,-0.59 -20.3,-0.59"
         style="fill:#87a0f9;fill-opacity:1;fill-rule:nonzero;stroke:none"
         id="path58" /><path
         d="m 10196.8,3146.13 c -21.3,0 -35.1,1.41 -37.1,1.62 -5.5,0.6 -9.4,5.53 -8.9,11.02 0.6,5.5 5.7,9.47 11.1,8.87 1.6,-0.18 168.7,-16.97 272,75.86 54.7,49.1 82.4,120.46 82.4,212.1 0,5.52 4.5,10 10,10 5.6,0 10,-4.48 10,-10 0,-97.61 -30,-174.01 -89.1,-227.06 -80.4,-72.1 -192.7,-82.41 -250.4,-82.41"
         style="fill:#87a0f9;fill-opacity:1;fill-rule:nonzero;stroke:none"
         id="path60" /><path
         d="M 9691.46,4008.36 H 3067.98 v 427.23 h 6623.48 v -427.23"
         style="fill:#cfd1d6;fill-opacity:1;fill-rule:nonzero;stroke:none"
         id="path62" /><path
         d="M 9354.51,7320 H 3169.85 V 4245.4 H 9354.51 V 7320"
         style="fill:#ccd6f9;fill-opacity:1;fill-rule:nonzero;stroke:none"
         id="path64" /><path
         d="m 7588.36,5858.19 c -83.02,74.89 -243.84,60.71 -279.27,-45.33 -52.98,155.26 -190.95,278.49 -351.18,313.68 -160.24,35.18 -337.14,-18.9 -450.3,-137.69 2.54,152.4 -130,280.32 -275.98,324.17 -145.98,43.85 -302.55,22.94 -453.48,1.65 11.38,252.86 -162.06,502.8 -402.91,580.64 -240.85,77.83 -527.75,-23.34 -666.5,-235.04 -103.98,332.98 -442.83,577.15 -791.6,570.41 -325.23,-6.27 -633.35,-230.28 -747.29,-533.56 V 5565.15 l 4512.14,-16.94 c 7.62,111.54 -10.6,235.1 -93.63,309.98"
         style="fill:#ffffff;fill-opacity:1;fill-rule:nonzero;stroke:none"
         id="path66" /><path
         d="M 9354.51,5565.23 H 3169.85 V 4245.4 h 6184.66 v 1319.83"
         style="fill:#fae1e7;fill-opacity:1;fill-rule:nonzero;stroke:none"
         id="path68" /><path
         d="M 5463.17,5565.23 3581.56,4245.4 H 7809.38 L 6802.54,5565.23 H 5463.17"
         style="fill:#faedf1;fill-opacity:1;fill-rule:nonzero;stroke:none"
         id="path70" /><path
         d="m 6632.42,5691.07 h -740.47 c -35.46,0 -67.39,-21.42 -80.85,-54.22 l -59.59,-145.3 c -23.58,-57.5 18.7,-120.54 80.85,-120.54 h 859.65 c 62.14,0 104.43,63.04 80.84,120.54 l -59.58,145.3 c -13.46,32.8 -45.4,54.22 -80.85,54.22"
         style="fill:#fa3e6a;fill-opacity:1;fill-rule:nonzero;stroke:none"
         id="path72" /><path
         d="m 6415.86,5939.8 h -307.35 c -42.42,0 -81.34,-23.47 -101.13,-60.98 l -99.08,-187.75 h 707.77 l -99.08,187.75 c -19.79,37.51 -58.72,60.98 -101.13,60.98"
         style="fill:#fa3e6a;fill-opacity:1;fill-rule:nonzero;stroke:none"
         id="path74" /><path
         d="m 6055.21,5854.32 c 10.73,20.35 31.68,32.98 54.68,32.98 h 307.35 c 23,0 43.96,-12.63 54.69,-32.98 l 82.94,-163.25 H 5969.5 l 85.71,163.25"
         style="fill:#87a0f9;fill-opacity:1;fill-rule:nonzero;stroke:none"
         id="path76" /><path
         d="m 5990.96,5531.48 c 0,-39.07 -31.68,-70.75 -70.75,-70.75 -39.08,0 -70.76,31.68 -70.76,70.75 0,39.08 31.68,70.76 70.76,70.76 39.07,0 70.75,-31.68 70.75,-70.76"
         style="fill:#fa8aa4;fill-opacity:1;fill-rule:nonzero;stroke:none"
         id="path78" /><path
         d="m 6674.91,5531.48 c 0,-39.07 -31.68,-70.75 -70.75,-70.75 -39.07,0 -70.75,31.68 -70.75,70.75 0,39.08 31.68,70.76 70.75,70.76 39.07,0 70.75,-31.68 70.75,-70.76"
         style="fill:#fa8aa4;fill-opacity:1;fill-rule:nonzero;stroke:none"
         id="path80" /><path
         d="m 6403.78,5480.02 h -283.19 v 85.21 h 283.19 v -85.21"
         style="fill:#ffffff;fill-opacity:1;fill-rule:nonzero;stroke:none"
         id="path82" /><path
         d="m 5939.63,5279.33 h -61.82 c -15.5,0 -28.05,12.55 -28.05,28.05 v 63.63 h 117.93 v -63.63 c 0,-15.5 -12.56,-28.05 -28.06,-28.05"
         style="fill:#3d3d3d;fill-opacity:1;fill-rule:nonzero;stroke:none"
         id="path84" /><path
         d="m 6646.55,5279.33 h -61.81 c -15.5,0 -28.06,12.55 -28.06,28.05 v 63.63 h 117.93 v -63.63 c 0,-15.5 -12.56,-28.05 -28.06,-28.05"
         style="fill:#3d3d3d;fill-opacity:1;fill-rule:nonzero;stroke:none"
         id="path86" /><path
         d="m 5920.37,5668.03 h -127.82 c -26.28,0 -47.58,21.3 -47.58,47.58 0,26.27 21.3,47.58 47.58,47.58 h 80.24 c 26.28,0 47.58,-21.31 47.58,-47.58 v -47.58"
         style="fill:#fa3e6a;fill-opacity:1;fill-rule:nonzero;stroke:none"
         id="path88" /><path
         d="m 6603.99,5668.03 h 127.83 c 26.28,0 47.57,21.3 47.57,47.58 0,26.27 -21.29,47.58 -47.57,47.58 h -80.24 c -26.28,0 -47.59,-21.31 -47.59,-47.58 v -47.58"
         style="fill:#fa3e6a;fill-opacity:1;fill-rule:nonzero;stroke:none"
         id="path90" /><path
         d="m 4500.72,5272.04 h -50 v 763.19 h 50 v -763.19"
         style="fill:#87a0f9;fill-opacity:1;fill-rule:nonzero;stroke:none"
         id="path92" /><path
         d="m 4421.86,6579.73 -307.38,-441.36 c -30.31,-43.51 0.83,-103.14 53.85,-103.14 h 614.77 c 53.02,0 84.16,59.63 53.85,103.14 l -307.38,441.36 c -26.11,37.5 -81.6,37.5 -107.71,0"
         style="fill:#87a0f9;fill-opacity:1;fill-rule:nonzero;stroke:none"
         id="path94" /><path
         d="m 4199.62,6145.78 252.64,362.77 c 11.37,16.33 35.53,16.33 46.91,0 l 252.66,-362.77 c 13.19,-18.95 -0.37,-44.92 -23.46,-44.92 h -505.3 c -23.09,0 -36.65,25.97 -23.45,44.92"
         style="fill:#e3e5eb;fill-opacity:1;fill-rule:nonzero;stroke:none"
         id="path96" /><path
         d="m 5854.95,4802.47 h -231.43 v 20 h 217.78 l 243.44,621.82 18.63,-7.29 -248.42,-634.53"
         style="fill:#0055fe;fill-opacity:1;fill-rule:nonzero;stroke:none"
         id="path98" /><path
         d="M 5627.13,5118.79 H 3878.41 v -561.15 h 1748.72 v 561.15"
         style="fill:#0055fe;fill-opacity:1;fill-rule:nonzero;stroke:none"
         id="path100" /><path
         d="m 4035.23,4765.95 h 116.43 c 1.81,0 2.41,0.91 1.81,2.72 l -58.89,185.28 c -0.31,1.2 -0.76,1.81 -1.36,1.81 -0.61,0 -1.06,-0.61 -1.35,-1.81 l -58.45,-185.28 c -0.3,-1.81 0.3,-2.72 1.81,-2.72 z m 145.87,-83.34 -18.12,55.26 c -0.6,1.2 -1.36,1.82 -2.27,1.82 h -134.99 c -0.9,0 -1.65,-0.62 -2.26,-1.82 l -17.67,-55.26 c -0.9,-3.34 -3.02,-4.99 -6.34,-4.99 h -21.75 c -2.11,0 -3.61,0.6 -4.52,1.81 -0.91,1.2 -1.07,2.87 -0.45,4.98 l 99.65,305.33 c 0.91,3.32 3.01,4.98 6.35,4.98 h 28.99 c 3.32,0 5.43,-1.66 6.33,-4.98 l 100.12,-305.33 c 0.3,-0.6 0.45,-1.35 0.45,-2.27 0,-1.2 -0.53,-2.25 -1.58,-3.16 -1.07,-0.91 -2.35,-1.36 -3.85,-1.36 h -21.75 c -3.32,0 -5.44,1.65 -6.34,4.99"
         style="fill:#87a0f9;fill-opacity:1;fill-rule:nonzero;stroke:none"
         id="path102" /><path
         d="m 4407.14,4994.72 h 22.21 c 3.92,0 5.88,-1.97 5.88,-5.89 v -305.32 c 0,-3.93 -1.96,-5.89 -5.88,-5.89 h -20.39 c -3.93,0 -5.89,1.96 -5.89,5.89 v 275.87 c 0,0.91 -0.23,1.51 -0.68,1.82 -0.45,0.29 -1.13,0.29 -2.04,0 l -47.57,-19.94 c -0.6,-0.3 -1.51,-0.45 -2.72,-0.45 -2.72,0 -4.07,1.66 -4.07,4.99 v 14.04 c 0,3.01 1.35,5.28 4.07,6.79 l 49.38,26.28 c 2.11,1.2 4.68,1.81 7.7,1.81"
         style="fill:#87a0f9;fill-opacity:1;fill-rule:nonzero;stroke:none"
         id="path104" /><path
         d="m 4504.08,4683.51 v 16.76 c 0,2.72 0.91,5.13 2.71,7.24 22.65,26.88 56.77,68.86 102.38,125.94 28.38,35.93 42.59,63.87 42.59,83.81 0,16 -5.44,28.83 -16.32,38.5 -10.87,9.66 -25.06,14.5 -42.57,14.5 -17.22,0 -31.11,-4.92 -41.68,-14.72 -10.58,-9.82 -15.71,-22.74 -15.4,-38.74 v -12.68 c 0,-3.92 -1.98,-5.89 -5.9,-5.89 h -20.83 c -3.93,0 -5.9,1.97 -5.9,5.89 v 16.76 c 0.61,23.25 9.3,41.97 26.05,56.17 16.77,14.19 37.98,21.29 63.66,21.29 18.11,0 34.12,-3.48 48.02,-10.42 13.88,-6.94 24.59,-16.53 32.16,-28.76 7.54,-12.23 11.32,-26.05 11.32,-41.45 0,-25.67 -14.2,-56.63 -42.59,-92.87 -13.58,-17.82 -38.65,-49.07 -75.19,-93.77 l -18.57,-22.65 -0.45,-1.8 c 0.3,-0.62 0.9,-0.91 1.81,-0.91 h 138.61 c 3.93,0 5.89,-1.96 5.89,-5.89 v -16.31 c 0,-3.93 -1.96,-5.89 -5.89,-5.89 h -178.03 c -3.92,0 -5.88,1.96 -5.88,5.89"
         style="fill:#87a0f9;fill-opacity:1;fill-rule:nonzero;stroke:none"
         id="path106" /><path
         d="m 4921.29,4774.57 c 0,-15.41 -2.27,-29.91 -6.79,-43.5 -6.05,-18.42 -16.24,-32.54 -30.59,-42.35 -14.34,-9.82 -32.08,-14.73 -53.22,-14.73 -21.45,0 -39.71,5.59 -54.81,16.77 -15.11,11.16 -25.37,25.97 -30.81,44.39 -2.71,9.36 -4.38,20.38 -4.98,33.07 0,3.92 1.96,5.89 5.88,5.89 h 20.85 c 3.92,0 5.88,-1.97 5.88,-5.89 0.6,-10.27 1.51,-17.97 2.72,-23.1 3.32,-13 9.81,-23.41 19.48,-31.26 9.67,-7.86 21.58,-11.78 35.79,-11.78 12.98,0 23.93,3.1 32.84,9.29 8.91,6.18 15.32,15.03 19.25,26.5 4.23,11.16 6.35,23.7 6.35,37.59 0,17.82 -2.72,32.63 -8.15,44.41 -8.47,21.74 -25.37,32.61 -50.74,32.61 -4.84,0 -9.68,-0.91 -14.5,-2.72 -1.82,-0.61 -2.88,-0.9 -3.18,-0.9 -1.8,0 -3.32,0.9 -4.52,2.71 l -9.97,11.77 c -1.21,1.82 -1.81,3.18 -1.81,4.08 0,0.91 0.6,2.27 1.81,4.08 l 78.81,92.41 c 1.52,1.82 1.07,2.72 -1.35,2.72 h -126.84 c -3.92,0 -5.88,1.96 -5.88,5.89 v 16.31 c 0,3.92 1.96,5.89 5.88,5.89 h 164.89 c 3.93,0 5.89,-1.97 5.89,-5.89 v -18.12 c 0,-2.42 -0.9,-4.84 -2.72,-7.25 l -72.92,-87.43 -0.47,-1.81 c 0.31,-0.61 1.07,-0.91 2.27,-0.91 32.92,-2.11 55.11,-17.37 66.6,-45.75 6.03,-14.8 9.06,-32.46 9.06,-52.99"
         style="fill:#87a0f9;fill-opacity:1;fill-rule:nonzero;stroke:none"
         id="path108" /><path
         d="m 5173.61,4788.15 v -17.21 c 0,-3.94 -1.98,-5.89 -5.9,-5.89 h -17.66 c -1.51,0 -2.27,-0.76 -2.27,-2.26 v -79.28 c 0,-3.93 -1.96,-5.89 -5.89,-5.89 h -20.38 c -3.93,0 -5.89,1.96 -5.89,5.89 v 79.28 c 0,1.5 -0.76,2.26 -2.26,2.26 h -134.09 c -3.92,0 -5.89,1.95 -5.89,5.89 v 14.49 c 0,1.82 0.6,4.22 1.81,7.25 l 91.51,197.51 c 1.5,3.01 3.91,4.53 7.25,4.53 h 20.84 c 2.41,0 3.99,-0.61 4.75,-1.81 0.74,-1.21 0.68,-2.88 -0.23,-4.99 l -88.79,-191.17 v -1.8 l 1.36,-0.91 h 101.48 c 1.5,0 2.26,0.75 2.26,2.27 v 71.11 c 0,3.93 1.96,5.89 5.89,5.89 h 20.38 c 3.93,0 5.89,-1.96 5.89,-5.89 v -71.11 c 0,-1.52 0.76,-2.27 2.27,-2.27 h 17.66 c 3.92,0 5.9,-1.96 5.9,-5.89"
         style="fill:#87a0f9;fill-opacity:1;fill-rule:nonzero;stroke:none"
         id="path110" /><path
         d="m 5472.58,4798.57 10.87,71.12 c 0,1.51 -0.61,2.26 -1.8,2.26 h -71.13 c -1.81,0 -2.72,-0.75 -2.72,-2.26 l -10.87,-71.12 c 0,-1.52 0.6,-2.26 1.81,-2.26 h 71.12 c 1.81,0 2.72,0.74 2.72,2.26 z m 78.37,73.38 h -32.62 c -1.81,0 -2.71,-0.75 -2.71,-2.26 l -10.87,-71.12 c 0,-1.52 0.6,-2.26 1.8,-2.26 h 28.55 c 3.92,0 5.88,-1.98 5.88,-5.89 l -0.45,-16.31 c 0,-3.93 -1.97,-5.89 -5.89,-5.89 h -32.16 c -1.81,0 -2.72,-0.75 -2.72,-2.27 l -11.78,-75.64 c -0.3,-3.63 -2.42,-5.45 -6.33,-5.45 l -20.4,0.91 c -1.81,0 -3.24,0.61 -4.29,1.81 -1.07,1.2 -1.45,2.73 -1.14,4.54 l 11.33,73.83 c 0,1.52 -0.62,2.27 -1.82,2.27 h -71.12 c -1.81,0 -2.72,-0.75 -2.72,-2.27 l -11.78,-75.64 c -0.31,-3.63 -2.42,-5.45 -6.34,-5.45 l -20.38,0.91 c -1.81,0 -3.24,0.61 -4.31,1.81 -1.05,1.2 -1.43,2.73 -1.13,4.54 l 11.33,73.83 c 0,1.52 -0.61,2.27 -1.81,2.27 h -27.18 c -3.94,0 -5.9,1.96 -5.9,5.89 l 0.46,16.31 c 0,3.91 1.97,5.89 5.89,5.89 h 31.26 c 1.81,0 2.72,0.74 2.72,2.26 l 10.87,71.12 c 0,1.51 -0.61,2.26 -1.82,2.26 h -26.73 c -3.92,0 -5.88,1.97 -5.88,5.89 v 16.76 c 0,3.93 1.96,5.89 5.88,5.89 h 31.27 c 1.8,0 2.72,0.76 2.72,2.27 l 11.77,75.65 c 0.61,3.62 2.72,5.44 6.34,5.44 l 20.39,-0.91 c 1.81,0 3.24,-0.61 4.29,-1.81 1.07,-1.21 1.44,-2.72 1.15,-4.53 l -11.34,-73.84 c 0,-1.51 0.61,-2.27 1.82,-2.27 h 70.67 c 1.81,0 2.72,0.76 2.72,2.27 l 11.77,75.65 c 0.6,3.62 2.72,5.44 6.34,5.44 l 20.39,-0.91 c 1.81,0 3.24,-0.61 4.3,-1.81 1.06,-1.21 1.44,-2.72 1.14,-4.53 l -11.33,-73.84 c 0,-1.51 0.6,-2.27 1.81,-2.27 h 28.54 c 3.93,0 5.89,-1.96 5.89,-5.89 l -0.45,-16.76 c 0,-3.92 -1.98,-5.89 -5.89,-5.89"
         style="fill:#87a0f9;fill-opacity:1;fill-rule:nonzero;stroke:none"
         id="path112" /><path
         d="m 8078,6231.11 c -121.22,135.97 -19.29,244.75 -1.15,448.71 18.12,203.96 -128.32,312.74 -299.14,312.74 -157.56,0 -317.28,-108.78 -299.15,-312.74 18.13,-203.96 120.06,-312.74 -1.15,-448.71 -121.22,-135.97 -211.87,-540.04 300.3,-540.04 512.16,0 421.51,404.07 300.29,540.04"
         style="fill:#fa3e6a;fill-opacity:1;fill-rule:nonzero;stroke:none"
         id="path114" /><path
         d="m 7777.71,5249.2 c -5.53,0 -10,4.48 -10,10 v 1371.45 c 0,5.53 4.47,10 10,10 5.52,0 10,-4.47 10,-10 V 5259.2 c 0,-5.52 -4.48,-10 -10,-10"
         style="fill:#fa8aa4;fill-opacity:1;fill-rule:nonzero;stroke:none"
         id="path116" /><path
         d="m 7766.43,6403.99 c -25.97,0 -87.77,4.11 -126.78,40.42 -22.14,20.6 -33.36,48.17 -33.36,81.94 0,5.52 4.47,10 10,10 5.53,0 10,-4.48 10,-10 0,-27.96 9.06,-50.59 26.94,-67.25 42.89,-39.99 122.96,-34.89 123.76,-34.81 5.69,0.36 10.3,-3.76 10.69,-9.27 0.39,-5.51 -3.75,-10.29 -9.26,-10.68 -0.75,-0.06 -5.13,-0.35 -11.99,-0.35"
         style="fill:#fa8aa4;fill-opacity:1;fill-rule:nonzero;stroke:none"
         id="path118" /><path
         d="m 7798.58,5970.73 c -12.62,0 -20.81,0.83 -21.96,0.96 -5.49,0.6 -9.44,5.53 -8.86,11.02 0.6,5.47 5.44,9.53 11.02,8.86 0.96,-0.11 96.69,-9.67 155.59,43.26 30.95,27.83 46.66,68.42 46.66,120.64 0,5.53 4.47,10 10,10 5.52,0 10,-4.47 10,-10 0,-58.19 -17.96,-103.81 -53.39,-135.6 -47.94,-43 -114.82,-49.14 -149.06,-49.14"
         style="fill:#fa8aa4;fill-opacity:1;fill-rule:nonzero;stroke:none"
         id="path120" /><path
         d="m 8804.89,5692.3 c -146.37,164.2 -23.29,295.56 -1.39,541.85 21.89,246.29 -154.96,377.65 -361.23,377.65 -190.26,0 -383.13,-131.36 -361.23,-377.65 21.89,-246.29 144.98,-377.65 -1.4,-541.85 -146.39,-164.19 -255.85,-652.13 362.63,-652.13 618.47,0 509.01,487.94 362.62,652.13"
         style="fill:#fa8aa4;fill-opacity:1;fill-rule:nonzero;stroke:none"
         id="path122" /><path
         d="m 8442.27,4508.65 c -5.53,0 -10,4.48 -10,10 v 1656.13 c 0,5.52 4.47,10 10,10 5.52,0 10,-4.48 10,-10 V 4518.65 c 0,-5.52 -4.48,-10 -10,-10"
         style="fill:#fa5a7f;fill-opacity:1;fill-rule:nonzero;stroke:none"
         id="path124" /><path
         d="m 8428.55,5903.14 c -31.11,0 -105.01,4.92 -151.58,48.26 -26.3,24.47 -39.63,57.25 -39.63,97.42 0,5.52 4.48,10 10,10 5.53,0 10,-4.48 10,-10 0,-34.4 11.2,-62.25 33.26,-82.78 52.63,-49 149.98,-42.6 150.95,-42.53 5.45,0.32 10.3,-3.75 10.69,-9.26 0.4,-5.51 -3.75,-10.3 -9.26,-10.7 -0.91,-0.06 -6.15,-0.41 -14.43,-0.41"
         style="fill:#fa5a7f;fill-opacity:1;fill-rule:nonzero;stroke:none"
         id="path126" /><path
         d="m 8467.55,5379.94 c -15.16,0 -24.98,1 -26.37,1.15 -5.49,0.6 -9.44,5.53 -8.86,11.02 0.6,5.49 5.56,9.49 11.02,8.87 1.16,-0.12 117.64,-11.79 189.46,52.74 37.86,34.01 57.06,83.56 57.06,147.25 0,5.52 4.48,10 10,10 5.53,0 10,-4.48 10,-10 0,-69.66 -21.45,-124.24 -63.78,-162.21 -57.37,-51.47 -137.49,-58.82 -178.53,-58.82"
         style="fill:#fa5a7f;fill-opacity:1;fill-rule:nonzero;stroke:none"
         id="path128" /><path
         d="m 4045.03,6403.02 h -20 v 237.95 h 237.94 v -20 h -217.94 v -217.95"
         style="fill:#0055fe;fill-opacity:1;fill-rule:nonzero;stroke:none"
         id="path130" /><path
         d="m 4926.4,6403.02 h -20 v 217.95 h -217.94 v 20 h 237.94 v -237.95"
         style="fill:#0055fe;fill-opacity:1;fill-rule:nonzero;stroke:none"
         id="path132" /><path
         d="m 4262.97,5936.49 h -237.94 v 237.94 h 20 v -217.94 h 217.94 v -20"
         style="fill:#0055fe;fill-opacity:1;fill-rule:nonzero;stroke:none"
         id="path134" /><path
         d="m 4926.4,5936.49 h -237.94 v 20 h 217.94 v 217.94 h 20 v -237.94"
         style="fill:#0055fe;fill-opacity:1;fill-rule:nonzero;stroke:none"
         id="path136" /><path
         d="m 5675.56,5740.22 h -20 v 318.6 h 318.61 v -20 h -298.61 v -298.6"
         style="fill:#0055fe;fill-opacity:1;fill-rule:nonzero;stroke:none"
         id="path138" /><path
         d="m 6868.81,5740.22 h -20 v 298.6 h -298.6 v 20 h 318.6 v -318.6"
         style="fill:#0055fe;fill-opacity:1;fill-rule:nonzero;stroke:none"
         id="path140" /><path
         d="m 5974.17,5155.31 h -318.61 v 318.6 h 20 v -298.6 h 298.61 v -20"
         style="fill:#0055fe;fill-opacity:1;fill-rule:nonzero;stroke:none"
         id="path142" /><path
         d="m 6868.81,5155.31 h -318.6 v 20 h 298.6 v 298.6 h 20 v -318.6"
         style="fill:#0055fe;fill-opacity:1;fill-rule:nonzero;stroke:none"
         id="path144" /><path
         d="M 8958.67,4015.51 H 3986.73 L 3488.76,3374.1 h 5967.88 l -497.97,641.41"
         style="fill:#e3e5eb;fill-opacity:1;fill-rule:nonzero;stroke:none"
         id="path146" /><path
         d="M 9456.64,3235.91 H 3488.76 v 138.19 h 5967.88 v -138.19"
         style="fill:#b4b6ba;fill-opacity:1;fill-rule:nonzero;stroke:none"
         id="path148" /><path
         d="M 9178.06,1880.36 H 3767.35 V 3235.91 H 9178.06 V 1880.36"
         style="fill:#cfd1d6;fill-opacity:1;fill-rule:nonzero;stroke:none"
         id="path150" /><path
         d="m 8457.46,5164.25 h -1799.3 c -17.58,0 -31.84,-14.25 -31.84,-31.84 v -1116.9 h 1862.99 v 1116.9 c 0,17.59 -14.26,31.84 -31.85,31.84"
         style="fill:#cfd1d6;fill-opacity:1;fill-rule:nonzero;stroke:none"
         id="path152" /><path
         d="m 6725.92,4115.1 v 949.56 h 1663.8 V 4115.1 h -1663.8"
         style="fill:#87a0f9;fill-opacity:1;fill-rule:nonzero;stroke:none"
         id="path154" /><path
         d="m 8144.04,4589.88 c 0,0 -262.46,-295.57 -586.23,-295.57 -323.76,0 -586.22,295.57 -586.22,295.57 0,0 262.46,295.57 586.22,295.57 323.77,0 586.23,-295.57 586.23,-295.57"
         style="fill:#ccd6f9;fill-opacity:1;fill-rule:nonzero;stroke:none"
         id="path156" /><path
         d="m 7557.81,4375.18 c -118.57,0 -214.69,96.12 -214.69,214.7 0,118.58 96.12,214.7 214.69,214.7 118.59,0 214.71,-96.12 214.71,-214.7 0,-118.58 -96.12,-214.7 -214.71,-214.7"
         style="fill:#87a0f9;fill-opacity:1;fill-rule:nonzero;stroke:none"
         id="path158" /><path
         d="m 4515.2,3906.35 h -80.09 l -236.54,-434.72 h 80.1 l 236.53,434.72"
         style="fill:#cfd1d6;fill-opacity:1;fill-rule:nonzero;stroke:none"
         id="path160" /><path
         d="m 4782.03,3906.35 h -80.09 l -199.19,-434.72 h 80.09 l 199.19,434.72"
         style="fill:#cfd1d6;fill-opacity:1;fill-rule:nonzero;stroke:none"
         id="path162" /><path
         d="m 5071.62,3906.35 h -80.09 l -186.74,-434.72 h 80.09 l 186.74,434.72"
         style="fill:#cfd1d6;fill-opacity:1;fill-rule:nonzero;stroke:none"
         id="path164" /><path
         d="m 5313.55,3906.35 h -80.09 l -124.49,-434.72 h 80.09 l 124.49,434.72"
         style="fill:#cfd1d6;fill-opacity:1;fill-rule:nonzero;stroke:none"
         id="path166" /><path
         d="m 5015.83,3688.99 h -149.46 c -17.53,0 -31.74,14.21 -31.74,31.75 0,17.53 14.21,31.74 31.74,31.74 h 149.46 c 17.53,0 31.74,-14.21 31.74,-31.74 0,-17.54 -14.21,-31.75 -31.74,-31.75"
         style="fill:#0055fe;fill-opacity:1;fill-rule:nonzero;stroke:none"
         id="path168" /><path
         d="m 5267.18,3593.61 h -149.46 c -17.53,0 -31.75,14.22 -31.75,31.75 0,17.54 14.22,31.75 31.75,31.75 h 149.46 c 17.53,0 31.74,-14.21 31.74,-31.75 0,-17.53 -14.21,-31.75 -31.74,-31.75"
         style="fill:#0055fe;fill-opacity:1;fill-rule:nonzero;stroke:none"
         id="path170" /><path
         d="m 5724.75,3866.73 c 0,-21.89 -44,-39.63 -98.28,-39.63 -54.27,0 -98.26,17.74 -98.26,39.63 0,21.88 43.99,39.62 98.26,39.62 54.28,0 98.28,-17.74 98.28,-39.62"
         style="fill:#87a0f9;fill-opacity:1;fill-rule:nonzero;stroke:none"
         id="path172" /><path
         d="m 6015.88,3866.73 c 0,-21.89 -44,-39.63 -98.27,-39.63 -54.28,0 -98.27,17.74 -98.27,39.63 0,21.88 43.99,39.62 98.27,39.62 54.27,0 98.27,-17.74 98.27,-39.62"
         style="fill:#87a0f9;fill-opacity:1;fill-rule:nonzero;stroke:none"
         id="path174" /><path
         d="m 6298.2,3866.73 c 0,-21.89 -43.99,-39.63 -98.27,-39.63 -54.27,0 -98.27,17.74 -98.27,39.63 0,21.88 44,39.62 98.27,39.62 54.28,0 98.27,-17.74 98.27,-39.62"
         style="fill:#87a0f9;fill-opacity:1;fill-rule:nonzero;stroke:none"
         id="path176" /><path
         d="m 5663.82,3516.24 c 0,-21.88 -43.99,-39.62 -98.26,-39.62 -54.28,0 -98.27,17.74 -98.27,39.62 0,21.88 43.99,39.63 98.27,39.63 54.27,0 98.26,-17.75 98.26,-39.63"
         style="fill:#87a0f9;fill-opacity:1;fill-rule:nonzero;stroke:none"
         id="path178" /><path
         d="m 5954.96,3516.24 c 0,-21.88 -44,-39.62 -98.28,-39.62 -54.27,0 -98.27,17.74 -98.27,39.62 0,21.88 44,39.63 98.27,39.63 54.28,0 98.28,-17.75 98.28,-39.63"
         style="fill:#87a0f9;fill-opacity:1;fill-rule:nonzero;stroke:none"
         id="path180" /><path
         d="m 6237.29,3516.24 c 0,-21.88 -44.01,-39.62 -98.28,-39.62 -54.27,0 -98.27,17.74 -98.27,39.62 0,21.88 44,39.63 98.27,39.63 54.27,0 98.28,-17.75 98.28,-39.63"
         style="fill:#fa3e6a;fill-opacity:1;fill-rule:nonzero;stroke:none"
         id="path182" /><path
         d="m 5690.97,3688.99 c 0,-21.88 -44,-39.62 -98.27,-39.62 -54.27,0 -98.27,17.74 -98.27,39.62 0,21.89 44,39.63 98.27,39.63 54.27,0 98.27,-17.74 98.27,-39.63"
         style="fill:#87a0f9;fill-opacity:1;fill-rule:nonzero;stroke:none"
         id="path184" /><path
         d="m 5982.1,3688.99 c 0,-21.88 -43.99,-39.62 -98.27,-39.62 -54.27,0 -98.27,17.74 -98.27,39.62 0,21.89 44,39.63 98.27,39.63 54.28,0 98.27,-17.74 98.27,-39.63"
         style="fill:#87a0f9;fill-opacity:1;fill-rule:nonzero;stroke:none"
         id="path186" /><path
         d="m 6264.42,3688.99 c 0,-21.88 -43.99,-39.62 -98.27,-39.62 -54.27,0 -98.26,17.74 -98.26,39.62 0,21.89 43.99,39.63 98.26,39.63 54.28,0 98.27,-17.74 98.27,-39.63"
         style="fill:#87a0f9;fill-opacity:1;fill-rule:nonzero;stroke:none"
         id="path188" /><path
         d="M 8465.04,3476.62 H 6608.88 c -29.9,0 -52.55,26.95 -47.4,56.4 l 57.88,331.22 c 4.02,23.03 24.02,39.83 47.4,39.83 h 1798.28 c 26.57,0 48.11,-21.54 48.11,-48.11 v -331.22 c 0,-26.58 -21.54,-48.12 -48.11,-48.12"
         style="fill:#b4b6ba;fill-opacity:1;fill-rule:nonzero;stroke:none"
         id="path190" /><path
         d="m 5589.17,2863.66 c -28.1,0 -50.96,-22.86 -50.96,-50.96 v -699.12 c 0,-28.1 22.86,-50.96 50.96,-50.96 h 2119.59 c 28.11,0 50.97,22.86 50.97,50.96 v 699.12 c 0,28.1 -22.86,50.96 -50.97,50.96 z M 7708.76,2042.62 H 5589.17 c -39.13,0 -70.96,31.83 -70.96,70.96 v 699.12 c 0,39.13 31.83,70.96 70.96,70.96 h 2119.59 c 39.13,0 70.97,-31.83 70.97,-70.96 v -699.12 c 0,-39.13 -31.84,-70.96 -70.97,-70.96"
         style="fill:#b4b6ba;fill-opacity:1;fill-rule:nonzero;stroke:none"
         id="path192" /><path
         d="m 5565.56,2586.07 h -71.13 v 149.18 h 71.13 v -149.18"
         style="fill:#87a0f9;fill-opacity:1;fill-rule:nonzero;stroke:none"
         id="path194" /><path
         d="m 5565.56,2171.15 h -71.13 v 149.18 h 71.13 v -149.18"
         style="fill:#87a0f9;fill-opacity:1;fill-rule:nonzero;stroke:none"
         id="path196" /><path
         d="m 4369.41,2052.62 h -376.08 c -38.18,0 -69.14,30.95 -69.14,69.14 v 203.31 c 0,38.18 30.96,69.14 69.14,69.14 h 376.08 c 38.19,0 69.14,-30.96 69.14,-69.14 v -203.31 c 0,-38.19 -30.95,-69.14 -69.14,-69.14"
         style="fill:#87a0f9;fill-opacity:1;fill-rule:nonzero;stroke:none"
         id="path198" /><path
         d="m 4329.58,2164.65 h -305.55 v 108.4 h 305.55 v -108.4"
         style="fill:#b4b6ba;fill-opacity:1;fill-rule:nonzero;stroke:none"
         id="path200" /><path
         d="m 4921.22,2052.62 h -54.74 v 821.04 h 54.74 v -821.04"
         style="fill:#b4b6ba;fill-opacity:1;fill-rule:nonzero;stroke:none"
         id="path202" /><path
         d="m 4782.03,2220.78 h -54.74 v 484.72 h 54.74 v -484.72"
         style="fill:#b4b6ba;fill-opacity:1;fill-rule:nonzero;stroke:none"
         id="path204" /><path
         d="m 5192.45,2220.78 h -54.74 v 484.72 h 54.74 v -484.72"
         style="fill:#b4b6ba;fill-opacity:1;fill-rule:nonzero;stroke:none"
         id="path206" /><path
         d="m 5071.62,2052.62 h -54.74 v 821.04 h 54.74 v -821.04"
         style="fill:#b4b6ba;fill-opacity:1;fill-rule:nonzero;stroke:none"
         id="path208" /><path
         d="m 3745.31,1689.5 c -97.24,-0.01 -183.74,32.41 -240.9,92.45 -58.38,61.31 -78.04,140.72 -84.25,196.54 -6.24,55.96 0.53,99.92 20.69,134.34 32.66,55.76 94.69,80.08 154.68,103.61 l 15.18,5.98 c 24.71,9.83 43.53,35.55 61.73,60.43 25.11,34.33 51.08,69.82 94.91,69.82 v -20 c -33.68,0 -55.58,-29.94 -78.77,-61.63 -19.87,-27.16 -40.42,-55.25 -70.47,-67.2 l -15.28,-6.03 c -56.81,-22.27 -115.56,-45.31 -144.72,-95.09 -17.9,-30.57 -23.82,-70.48 -18.08,-122.03 5.87,-52.76 24.33,-127.67 78.86,-184.95 68.89,-72.35 184.31,-101.71 308.78,-78.44 116.77,21.79 220.02,83.88 283.27,170.36 68.27,93.34 87.94,218.39 50.09,318.59 l 18.71,7.07 c 40.79,-108 20.61,-237.3 -52.66,-337.48 -66.22,-90.53 -174.02,-155.48 -295.74,-178.2 -29.26,-5.46 -58.09,-8.14 -86.03,-8.14"
         style="fill:#87a0f9;fill-opacity:1;fill-rule:nonzero;stroke:none"
         id="path210" /><path
         d="m 4310.63,3555.87 h -33.55 v 228.9 h 33.55 v -228.9"
         style="fill:#87a0f9;fill-opacity:1;fill-rule:nonzero;stroke:none"
         id="path212" /><path
         d="m 4389.56,3812.66 c 0,-52.74 -42.75,-95.49 -95.49,-95.49 -52.74,0 -95.5,42.75 -95.5,95.49 0,52.74 42.76,95.49 95.5,95.49 52.74,0 95.49,-42.75 95.49,-95.49"
         style="fill:#fa3e6a;fill-opacity:1;fill-rule:nonzero;stroke:none"
         id="path214" /><path
         d="m 4603.58,3555.87 h -33.55 v 228.9 h 33.55 v -228.9"
         style="fill:#87a0f9;fill-opacity:1;fill-rule:nonzero;stroke:none"
         id="path216" /><path
         d="m 4682.51,3812.66 c 0,-52.74 -42.75,-95.49 -95.49,-95.49 -52.74,0 -95.5,42.75 -95.5,95.49 0,52.74 42.76,95.49 95.5,95.49 52.74,0 95.49,-42.75 95.49,-95.49"
         style="fill:#fa3e6a;fill-opacity:1;fill-rule:nonzero;stroke:none"
         id="path218" /><path
         d="m 7557.81,4489.13 c -55.63,0 -100.74,45.11 -100.74,100.75 0,55.64 45.11,100.74 100.74,100.74 55.65,0 100.75,-45.1 100.75,-100.74 0,-55.64 -45.1,-100.75 -100.75,-100.75 z m 243.45,143.77 h -61.69 c -4.66,19.76 -12.43,38.3 -22.8,55.08 l 43.61,43.62 c 2.25,2.24 2.25,5.9 0,8.15 l -52.69,52.69 c -2.26,2.25 -5.91,2.25 -8.16,0 l -43.61,-43.61 c -16.78,10.37 -35.32,18.14 -55.08,22.8 v 61.69 c 0,3.18 -2.58,5.76 -5.76,5.76 h -74.52 c -3.19,0 -5.77,-2.58 -5.77,-5.76 v -61.69 c -19.75,-4.66 -38.3,-12.43 -55.07,-22.8 l -43.62,43.61 c -2.25,2.25 -5.9,2.25 -8.15,0 l -52.7,-52.69 c -2.24,-2.25 -2.24,-5.91 0,-8.15 l 43.62,-43.62 c -10.38,-16.78 -18.15,-35.32 -22.81,-55.08 h -61.68 c -3.19,0 -5.77,-2.58 -5.77,-5.76 v -74.52 c 0,-3.19 2.58,-5.76 5.77,-5.76 h 61.68 c 4.66,-19.76 12.43,-38.31 22.81,-55.08 l -43.62,-43.62 c -2.24,-2.25 -2.24,-5.89 0,-8.15 l 52.7,-52.7 c 2.25,-2.24 5.9,-2.24 8.15,0 l 43.62,43.62 c 16.77,-10.37 35.32,-18.15 55.07,-22.81 v -61.68 c 0,-3.19 2.58,-5.77 5.77,-5.77 h 74.52 c 3.18,0 5.76,2.58 5.76,5.77 v 61.68 c 19.76,4.66 38.3,12.44 55.08,22.81 l 43.61,-43.62 c 2.25,-2.24 5.9,-2.24 8.16,0 l 52.69,52.7 c 2.25,2.26 2.25,5.9 0,8.15 l -43.61,43.62 c 10.37,16.77 18.14,35.32 22.8,55.08 h 61.69 c 3.18,0 5.76,2.57 5.76,5.76 v 74.52 c 0,3.18 -2.58,5.76 -5.76,5.76"
         style="fill:#0055fe;fill-opacity:1;fill-rule:nonzero;stroke:none"
         id="path220" /><path
         d="m 7557.81,4465.57 c -68.65,0 -124.3,55.65 -124.3,124.31 0,68.66 55.65,124.31 124.3,124.31 68.66,0 124.32,-55.65 124.32,-124.31 0,-68.66 -55.66,-124.31 -124.32,-124.31"
         style="fill:#87a0f9;fill-opacity:1;fill-rule:nonzero;stroke:none"
         id="path222" /><path
         d="m 7557.81,4511.73 c -43.15,0 -78.14,34.99 -78.14,78.15 0,43.16 34.99,78.14 78.14,78.14 43.17,0 78.15,-34.98 78.15,-78.14 0,-43.16 -34.98,-78.15 -78.15,-78.15"
         style="fill:#0055fe;fill-opacity:1;fill-rule:nonzero;stroke:none"
         id="path224" /><path
         d="m 7596.83,4606.89 c -23.01,0 -41.66,18.65 -41.66,41.66 0,23.01 18.65,41.66 41.66,41.66 23,0 41.66,-18.65 41.66,-41.66 0,-23.01 -18.66,-41.66 -41.66,-41.66"
         style="fill:#ccd6f9;fill-opacity:1;fill-rule:nonzero;stroke:none"
         id="path226" /><path
         d="m 6359.39,4269.16 133.87,124.49 h 133.06 v -378.14 h -266.93 v 253.65"
         style="fill:#cfd1d6;fill-opacity:1;fill-rule:nonzero;stroke:none"
         id="path228" /><path
         d="m 6498.51,4231.82 h 127.81 v 51.61 h -127.81 c -14.25,0 -25.8,-11.56 -25.8,-25.81 0,-14.25 11.55,-25.8 25.8,-25.8"
         style="fill:#e3e5eb;fill-opacity:1;fill-rule:nonzero;stroke:none"
         id="path230" /><path
         d="m 6498.51,4117.47 h 127.81 v 51.61 h -127.81 c -14.25,0 -25.8,-11.55 -25.8,-25.81 0,-14.25 11.55,-25.8 25.8,-25.8"
         style="fill:#e3e5eb;fill-opacity:1;fill-rule:nonzero;stroke:none"
         id="path232" /><path
         d="m 6636.32,4015.51 h -20 v 334.08 h 20 v -334.08"
         style="fill:#e3e5eb;fill-opacity:1;fill-rule:nonzero;stroke:none"
         id="path234" /><path
         d="m 8756.23,4269.16 -133.87,124.49 h -133.05 v -378.14 h 266.92 v 253.65"
         style="fill:#cfd1d6;fill-opacity:1;fill-rule:nonzero;stroke:none"
         id="path236" /><path
         d="m 8617.11,4231.82 h -127.8 v 51.61 h 127.8 c 14.26,0 25.81,-11.56 25.81,-25.81 0,-14.25 -11.55,-25.8 -25.81,-25.8"
         style="fill:#e3e5eb;fill-opacity:1;fill-rule:nonzero;stroke:none"
         id="path238" /><path
         d="m 8617.11,4117.47 h -127.8 v 51.61 h 127.8 c 14.26,0 25.81,-11.55 25.81,-25.81 0,-14.25 -11.55,-25.8 -25.81,-25.8"
         style="fill:#e3e5eb;fill-opacity:1;fill-rule:nonzero;stroke:none"
         id="path240" /><path
         d="m 8494.89,4015.51 h -20 v 334.08 h 20 v -334.08"
         style="fill:#e3e5eb;fill-opacity:1;fill-rule:nonzero;stroke:none"
         id="path242" /><path
         d="m 9691.46,5621.72 -115.45,161.83 h -221.5 V 4245.4 h 336.95 v 1376.32"
         style="fill:#cfd1d6;fill-opacity:1;fill-rule:nonzero;stroke:none"
         id="path244" /><path
         d="m 9630.4,5554.67 c 0,-59.32 -48.09,-107.41 -107.41,-107.41 -59.33,0 -107.41,48.09 -107.41,107.41 0,59.32 48.08,107.42 107.41,107.42 59.32,0 107.41,-48.1 107.41,-107.42"
         style="fill:#607ce3;fill-opacity:1;fill-rule:nonzero;stroke:none"
         id="path246" /><path
         d="m 9629.4,5581.23 -191.89,-95.29 c -11.64,-5.79 -25.77,-1.03 -31.56,10.61 -5.78,11.65 -1.03,25.78 10.61,31.56 l 191.91,95.3 c 11.64,5.78 25.77,1.03 31.55,-10.62 5.79,-11.65 1.03,-25.77 -10.62,-31.56"
         style="fill:#0055fe;fill-opacity:1;fill-rule:nonzero;stroke:none"
         id="path248" /><path
         d="m 9630.4,5207.29 c 0,-59.32 -48.09,-107.41 -107.41,-107.41 -59.33,0 -107.41,48.09 -107.41,107.41 0,59.33 48.08,107.42 107.41,107.42 59.32,0 107.41,-48.09 107.41,-107.42"
         style="fill:#607ce3;fill-opacity:1;fill-rule:nonzero;stroke:none"
         id="path250" /><path
         d="m 9599.27,5128.48 -178.58,118.39 c -10.84,7.18 -13.8,21.79 -6.62,32.63 7.19,10.84 21.8,13.8 32.64,6.61 l 178.57,-118.39 c 10.84,-7.18 13.8,-21.79 6.61,-32.63 -7.17,-10.84 -21.78,-13.8 -32.62,-6.61"
         style="fill:#0055fe;fill-opacity:1;fill-rule:nonzero;stroke:none"
         id="path252" /><path
         d="m 9630.4,4919.71 h -214.82 v 33.01 h 214.82 v -33.01"
         style="fill:#607ce3;fill-opacity:1;fill-rule:nonzero;stroke:none"
         id="path254" /><path
         d="m 9630.4,4846.72 h -214.82 v 33.02 h 214.82 v -33.02"
         style="fill:#607ce3;fill-opacity:1;fill-rule:nonzero;stroke:none"
         id="path256" /><path
         d="m 9630.4,4773.74 h -214.82 v 33.02 h 214.82 v -33.02"
         style="fill:#607ce3;fill-opacity:1;fill-rule:nonzero;stroke:none"
         id="path258" /><path
         d="m 9817.1,2042.62 h -639.04 v 20 h 639.04 c 35.67,0 64.7,29.02 64.7,64.69 v 2264.71 c 0,35.67 -29.03,64.69 -64.7,64.69 h -125.64 v 20 h 125.64 c 46.7,0 84.7,-37.99 84.7,-84.69 V 2127.31 c 0,-46.69 -38,-84.69 -84.7,-84.69"
         style="fill:#87a0f9;fill-opacity:1;fill-rule:nonzero;stroke:none"
         id="path260" /><path
         d="m 7592.63,1816.55 c 0,0 22.74,-134.71 0,-153.61 -22.75,-18.9 -213.78,-37.78 -312.44,-39.88 -98.67,-2.1 -308.59,-23.1 -340.07,0 -31.5,23.08 -6.3,83.96 121.75,100.76 128.05,16.8 314.22,156.54 314.22,156.54 l 216.54,-63.81"
         style="fill:#666666;fill-opacity:1;fill-rule:nonzero;stroke:none"
         id="path262" /><path
         d="m 7622.69,2873.66 -266.61,-981.95 c 0,0 121.32,-75.16 236.55,-75.16 0,0 302.39,475.95 334.06,528.56 31.67,52.6 -304,528.55 -304,528.55"
         style="fill:#3d3d3d;fill-opacity:1;fill-rule:nonzero;stroke:none"
         id="path264" /><path
         d="m 8796.71,4829.29 c -39.13,10.85 -74.44,26.57 -95.44,49.34 -69.94,75.83 -7.73,120.9 37.8,96.62 28.35,-15.12 54.82,-9.45 54.82,-9.45 0,0 -69.94,47.26 -49.15,94.51 20.8,47.26 98.3,-43.47 198.47,-66.15 100.19,-22.69 285.43,18.9 285.43,-137.99 0,0 56.71,24.57 69.94,-60.49 13.24,-85.06 -73.72,-137.99 -73.72,-194.69 0,-56.71 -69.64,-162.16 -133.1,-127.4 l -295.05,355.7"
         style="fill:#3d3d3d;fill-opacity:1;fill-rule:nonzero;stroke:none"
         id="path266" /><path
         d="m 8810.9,4875.07 c 0,0 -24.57,-68.05 -24.57,-115.3 0,0 -90.73,-130.43 -109.64,-147.45 -18.9,-17.01 64.27,-37.8 81.28,-37.8 0,0 -7.56,-130.43 22.68,-149.32 30.25,-18.91 204.15,0 247.63,83.16 43.48,83.17 66.15,231.38 49.14,311.33 -17.01,79.95 -266.52,55.38 -266.52,55.38"
         style="fill:#faaeb1;fill-opacity:1;fill-rule:nonzero;stroke:none"
         id="path268" /><path
         d="m 9013.15,4580.19 c 0,0 28.36,-45.37 88.84,-37.8 60.49,7.56 83.18,103.96 58.61,134.21 -24.57,30.24 -113.42,9.44 -113.42,9.44 l -34.03,-105.85"
         style="fill:#faaeb1;fill-opacity:1;fill-rule:nonzero;stroke:none"
         id="path270" /><path
         d="m 8894.07,4455.44 -15.56,-172.01 204.59,71.82 17.01,232.5 -206.04,-132.31"
         style="fill:#faaeb1;fill-opacity:1;fill-rule:nonzero;stroke:none"
         id="path272" /><path
         d="m 9128.46,4773 c 0,0 -61.68,-153.46 -94.51,-155.72 -32.83,-2.27 -34.03,187.85 -34.03,187.85 0,0 -111.7,-1.14 -202.85,24.06 l -23.97,66.67 77.5,17.02 262.74,-34.25 15.12,-105.63"
         style="fill:#3d3d3d;fill-opacity:1;fill-rule:nonzero;stroke:none"
         id="path274" /><path
         d="m 8829.22,4321.72 c 0,0 101.99,39.89 299.24,96.75 l 20.54,-96.75 c 0,0 102.03,-150.25 89.63,-410.39 -12.39,-260.15 -90.27,-569.85 -110.17,-603.91 -19.91,-34.07 -515.42,-105.3 -617.62,0 -102.2,105.29 151.76,545.07 176.53,684.44 24.78,139.36 85.73,204.39 85.73,204.39 l 56.12,125.47"
         style="fill:#eff1f7;fill-opacity:1;fill-rule:nonzero;stroke:none"
         id="path276" /><path
         d="m 8939.79,4182.56 c 130.89,-13.92 216.54,-137.28 209.21,-227.76 -7.31,-90.46 -111.49,-375.6 -555.64,-397.53 -444.15,-21.94 -592.2,222.07 -592.2,222.07 0,0 -21.93,112.41 115.15,128.86 0,0 123.38,-74.55 268.68,-72.92 145.31,1.63 279.65,64.69 361.9,166.14 82.25,101.44 124.29,188.43 192.9,181.14"
         style="fill:#eff1f7;fill-opacity:1;fill-rule:nonzero;stroke:none"
         id="path278" /><path
         d="m 8384.99,3825.28 c -5.47,0 -9.94,4.41 -10,9.9 -0.06,5.51 4.37,10.04 9.89,10.1 140.63,1.59 273.06,62.31 354.25,162.43 19.05,23.51 36.34,46.77 51.59,67.3 l 10.57,14.2 c 3.3,4.42 9.57,5.34 13.99,2.02 4.43,-3.3 5.34,-9.57 2.02,-13.99 l -10.52,-14.15 c -15.37,-20.7 -32.8,-44.14 -52.12,-67.97 -84.89,-104.7 -223.05,-168.2 -369.56,-169.84 h -0.11"
         style="fill:#bdbdbd;fill-opacity:1;fill-rule:nonzero;stroke:none"
         id="path280" /><path
         d="m 8538.45,3545.89 c -402.5,0 -544.39,225.88 -545.83,228.26 -2.87,4.72 -1.37,10.85 3.35,13.72 4.71,2.86 10.87,1.38 13.74,-3.34 1.45,-2.38 151.15,-238.73 583.15,-217.27 424,20.93 538.02,287.43 546.17,388.36 0.45,5.49 5.17,9.53 10.78,9.16 5.5,-0.45 9.6,-5.28 9.16,-10.79 -8.55,-105.78 -126.75,-385.06 -565.11,-406.71 -18.99,-0.94 -37.47,-1.39 -55.41,-1.39"
         style="fill:#bdbdbd;fill-opacity:1;fill-rule:nonzero;stroke:none"
         id="path282" /><path
         d="m 8099.64,3905.51 c 0,0 -72.73,85.18 -115.88,102.83 -43.14,17.66 -84.34,1.96 -133.36,-39.22 -49.03,-41.18 -109.83,-97.05 -94.14,-133.84 15.69,-36.78 27.46,-95.62 60.8,-95.62 33.34,0 86.29,45.11 86.29,45.11 0,0 50.49,-63.81 97.81,-5.43 47.32,58.39 98.48,126.17 98.48,126.17"
         style="fill:#faaeb1;fill-opacity:1;fill-rule:nonzero;stroke:none"
         id="path284" /><path
         d="m 7903.35,3784.77 v 0 0 0"
         style="fill:#dadbdd;fill-opacity:1;fill-rule:nonzero;stroke:none"
         id="path286" /><path
         d="m 7894.69,3779.77 c -18.29,31.72 -31.23,56.59 -38.53,71.14 -19.94,-20.95 -42.08,-25.25 -43.17,-25.46 l -3.69,19.66 c 0.96,0.18 23.82,4.95 40.65,29.9 l 9.88,14.66 7.47,-16.02 c 0.16,-0.33 15.89,-33.92 44.71,-83.88 l -8.66,-5 v 0 0 l -8.66,-5"
         style="fill:#fdd7d8;fill-opacity:1;fill-rule:nonzero;stroke:none"
         id="path288" /><path
         d="m 8792.32,4497.32 c -19.83,0 -35.23,2.95 -36.43,3.19 -5.41,1.06 -8.94,6.32 -7.87,11.73 1.05,5.42 6.29,8.97 11.73,7.89 0.49,-0.1 50.23,-9.53 81.93,6.89 4.87,2.54 10.94,0.64 13.48,-4.27 2.54,-4.9 0.63,-10.94 -4.28,-13.48 -18.19,-9.45 -40.26,-11.95 -58.56,-11.95"
         style="fill:#3d3d3d;fill-opacity:1;fill-rule:nonzero;stroke:none"
         id="path290" /><path
         d="m 8834.51,4648 c -4.83,0 -9.08,3.5 -9.86,8.42 -5.41,33.8 -0.25,69.51 -0.02,71.01 0.8,5.46 5.85,9.26 11.35,8.43 5.47,-0.81 9.23,-5.89 8.43,-11.35 -0.04,-0.34 -4.92,-34.24 -0.02,-64.93 0.87,-5.46 -2.84,-10.59 -8.29,-11.46 l -1.59,-0.12"
         style="fill:#3d3d3d;fill-opacity:1;fill-rule:nonzero;stroke:none"
         id="path292" /><path
         d="m 8039.3,1849.56 c 0,0 44.89,-171.92 30.19,-207.61 -14.69,-35.69 -159.54,-54.58 -260.3,-41.99 -100.76,12.6 -340.07,-47.69 -382.06,-3.91 -41.98,43.8 12.6,81.59 77.67,98.38 65.08,16.79 197.76,41.25 267.87,101.45 l 266.63,53.68"
         style="fill:#666666;fill-opacity:1;fill-rule:nonzero;stroke:none"
         id="path294" /><path
         d="m 8510.84,3307.42 -40.34,-99.11 c 0,0 -748.16,-47.8 -872.29,-168.16 -124.13,-120.36 171.11,-1036.26 174.46,-1079.88 3.36,-43.61 -40.26,-70.46 -20.13,-107.36 20.13,-36.9 20.13,-57.03 20.13,-57.03 0,0 170.92,-23.49 266.63,53.68 0,0 38.67,201.29 38.67,456.27 0,254.98 16.78,342.21 16.78,342.21 0,0 573.69,-46.98 754.86,6.71 181.16,53.68 309.51,389.51 241.98,635.92 l -580.75,16.75"
         style="fill:#3d3d3d;fill-opacity:1;fill-rule:nonzero;stroke:none"
         id="path296" /><path
         d="m 9394.28,4015.51 c -186.53,-18.81 -330.92,-555.06 -381.13,-811.53 -50.2,-256.46 -127.33,-489.61 -438.49,-442.98 -311.16,46.63 -491.86,110.75 -515.18,-64.13 -23.31,-174.86 110.75,-215.66 466.31,-215.66 355.56,0 589.67,21.33 644.56,392.45 54.89,371.13 177.3,878.98 282.22,1003.92 104.92,124.95 -58.29,137.93 -58.29,137.93"
         style="fill:#0055fe;fill-opacity:1;fill-rule:nonzero;stroke:none"
         id="path298" /><path
         d="m 8644.04,2570.08 v 0 c -30.44,0 -55.1,24.67 -55.1,55.1 v 504.25 h 110.2 v -504.25 c 0,-30.43 -24.67,-55.1 -55.1,-55.1"
         style="fill:#87a0f9;fill-opacity:1;fill-rule:nonzero;stroke:none"
         id="path300" /><path
         d="m 8813.24,3098.76 h -737.55 c -37.87,0 -68.57,30.7 -68.57,68.57 0,37.88 30.7,68.58 68.57,68.58 h 737.55 c 37.87,0 68.58,-30.7 68.58,-68.58 0,-37.87 -30.71,-68.57 -68.58,-68.57"
         style="fill:#87a0f9;fill-opacity:1;fill-rule:nonzero;stroke:none"
         id="path302" /><path
         d="m 8593.19,3616.25 v -0.02 z m 4.6,-15.48 c -4.25,0 -8.38,1.79 -11.34,5.11 -50.16,55.95 -92.76,118.34 -126.59,185.45 -35.36,-26.71 -58.43,-69.35 -60.81,-113.98 -0.3,-5.52 -4.95,-9.79 -10.51,-9.46 -5.52,0.29 -9.76,5.01 -9.47,10.52 2.7,50.54 28.8,98.8 69.85,129.1 4.49,3.33 10.18,4.49 15.72,3.17 5.67,-1.34 10.44,-5.11 13.07,-10.35 31.25,-61.96 70.14,-119.81 115.7,-172.13 2.35,99.71 19.47,198.11 50.95,292.7 1.74,5.24 7.41,8.05 12.64,6.34 5.25,-1.75 8.08,-7.42 6.34,-12.65 -32.08,-96.42 -48.96,-196.87 -50.15,-298.57 -0.06,-6.39 -3.97,-12 -9.97,-14.25 -1.77,-0.67 -3.62,-1 -5.43,-1"
         style="fill:#bdbdbd;fill-opacity:1;fill-rule:nonzero;stroke:none"
         id="path304" /><path
         d="m 8772.33,1792.52 h -144.92 v 689.65 h 144.92 v -689.65"
         style="fill:#87a0f9;fill-opacity:1;fill-rule:nonzero;stroke:none"
         id="path306" /><path
         d="m 9094.68,1612.31 c 17.3,0 28.42,18.74 19.79,33.75 -68.66,119.48 -231.31,203.5 -421.13,203.5 -189.82,0 -352.47,-84.02 -421.13,-203.5 -8.63,-15.01 2.49,-33.75 19.79,-33.75 h 802.68"
         style="fill:#87a0f9;fill-opacity:1;fill-rule:nonzero;stroke:none"
         id="path308" /><path
         d="m 7779.77,1838.79 c -5.27,0 -9.68,4.12 -9.98,9.44 -0.31,5.52 3.91,10.24 9.43,10.54 76.97,4.29 153.08,40.46 205.82,97.34 -58.58,-4.3 -117.93,-5.28 -176.5,-2.92 -6.17,0.25 -11.62,4.12 -13.88,9.88 -2.28,5.77 -0.92,12.35 3.46,16.75 99.59,100.59 187.61,223.8 261.62,366.22 2.55,4.9 8.57,6.8 13.48,4.26 4.91,-2.55 6.81,-8.58 4.27,-13.48 -73.22,-140.89 -160.07,-263.31 -258.23,-364.02 58.2,-1.95 117.05,-0.59 175.06,4.09 6.16,0.46 12.32,-2.82 15.23,-8.51 2.86,-5.62 2.06,-12.34 -2.04,-17.11 -56.33,-65.64 -141.25,-107.69 -227.18,-112.46 l -0.56,-0.02"
         style="fill:#626262;fill-opacity:1;fill-rule:nonzero;stroke:none"
         id="path310" /><path
         d="m 7752.55,1842.91 c -3.55,0 -6.97,1.88 -8.79,5.21 -13.63,25 -3.08,46.7 6.23,65.85 7.2,14.82 13.99,28.81 12.71,45.53 -0.57,7.39 -13.04,51.72 -28.83,107.85 -122.24,434.45 -234.77,890.62 -142.62,979.97 3.96,3.84 10.29,3.75 14.14,-0.21 3.85,-3.97 3.75,-10.29 -0.21,-14.14 -96.02,-93.11 81.22,-723.06 147.94,-960.21 19.97,-70.97 28.82,-102.74 29.52,-111.72 1.71,-22.12 -7,-40.02 -14.66,-55.81 -9.81,-20.17 -14.95,-32.33 -6.66,-47.53 2.64,-4.85 0.86,-10.92 -4,-13.57 -1.51,-0.83 -3.15,-1.22 -4.77,-1.22"
         style="fill:#626262;fill-opacity:1;fill-rule:nonzero;stroke:none"
         id="path312" /><path
         d="m 8905.97,4159.08 c -2.05,0 -4.09,0.64 -5.79,1.85 -2.65,1.88 -4.21,4.92 -4.21,8.15 0,27.3 -26.62,78.29 -42.98,106.13 l -72.26,-85.42 c -3.56,-4.21 -9.88,-4.73 -14.09,-1.18 -4.22,3.57 -4.75,9.89 -1.18,14.1 l 81.22,96 c 2.06,2.43 5.11,3.7 8.32,3.53 3.17,-0.23 6.05,-1.94 7.76,-4.63 1.96,-3.09 43.66,-69.27 51.83,-114.58 37.29,14.66 153.62,64.78 227.02,145.42 3.72,4.08 10.05,4.38 14.12,0.66 4.09,-3.71 4.39,-10.04 0.67,-14.12 -91.39,-100.41 -240.83,-153.15 -247.15,-155.35 -1.07,-0.37 -2.18,-0.56 -3.28,-0.56"
         style="fill:#bdbdbd;fill-opacity:1;fill-rule:nonzero;stroke:none"
         id="path314" /><path
         d="m 2851.75,1804.63 c 0,0 -40.13,-123.18 -29.88,-179.5 10.23,-56.32 309.77,-40.97 414.73,-46.09 104.97,-5.11 153.61,12.81 143.37,40.97 -10.24,28.15 -130.57,32.7 -189.45,71.4 -58.88,38.68 -135.69,113.22 -135.69,113.22 h -203.08"
         style="fill:#87a0f9;fill-opacity:1;fill-rule:nonzero;stroke:none"
         id="path316" /><path
         d="m 1789.03,1857.99 c 0,0 -66.93,-110.93 -69.69,-168.11 -2.75,-57.17 292.5,-109.92 393.59,-138.64 101.09,-28.71 152.52,-22.25 148.92,7.5 -3.61,29.75 -119.8,61.37 -168.41,112.37 -48.62,51 -106.58,140.97 -106.58,140.97 l -197.83,45.91"
         style="fill:#87a0f9;fill-opacity:1;fill-rule:nonzero;stroke:none"
         id="path318" /><path
         d="m 3084.05,3055.08 c 0,0 117.96,-293.62 71.11,-731.73 -46.85,-438.11 -71.11,-518.72 -71.11,-518.72 0,0 -68.28,-73.6 -232.3,0 0,0 34.34,532.74 0,697.47 -34.34,164.73 -273.13,710.38 -273.13,710.38 0,0 -90.39,-591.42 -207.92,-793.23 -117.53,-201.82 -375.58,-608.82 -375.58,-608.82 0,0 -105.12,-45.64 -211.96,39.84 0,0 229.63,504.44 268.2,761.49 38.57,257.05 56.52,741.66 56.52,741.66 l 439.21,372.71 h 212.11 l 324.85,-671.05"
         style="fill:#3d3d3d;fill-opacity:1;fill-rule:nonzero;stroke:none"
         id="path320" /><path
         d="m 2912.88,5432.94 c 0,0 18.01,-49.54 0,-132.12 0,0 24.02,-94.58 46.54,-123.11 22.52,-28.53 -40.54,-25.52 -54.05,-25.52 0,0 -28.52,-106.6 -52.55,-115.61 -24.02,-9.01 -127.61,49.55 -127.61,49.55 l 33.07,249.43 154.6,97.38"
         style="fill:#faaeb1;fill-opacity:1;fill-rule:nonzero;stroke:none"
         id="path322" /><path
         d="m 2802.73,5105.88 c 0,0 -49.39,-111.13 -46.92,-165.46 l -79.03,56.8 37.04,133.36 88.91,-24.7"
         style="fill:#faaeb1;fill-opacity:1;fill-rule:nonzero;stroke:none"
         id="path324" /><path
         d="m 2714.05,4991.44 c 0,0 279.78,-76.52 387.39,-236.74 107.61,-160.22 133.91,-322.83 248.7,-334.78 114.78,-11.96 248.69,101.24 248.69,101.24 0,0 112.4,-43.85 131.53,-151.46 0,0 -155.44,-248.69 -396.96,-243.91 -241.52,4.78 -468.7,165 -468.7,165 l -150.65,700.65"
         style="fill:#e9ecf5;fill-opacity:1;fill-rule:nonzero;stroke:none"
         id="path326" /><path
         d="m 3598.83,4521.16 c 0,0 11.72,80.22 34.51,152.75 22.8,72.53 41.45,182.35 78.74,178.21 37.31,-4.15 4.15,-118.12 0,-157.49 0,0 147.14,-49.74 132.63,-109.84 -14.5,-60.09 -91.18,-161.63 -142.99,-184.43 l -102.89,120.8"
         style="fill:#faaeb1;fill-opacity:1;fill-rule:nonzero;stroke:none"
         id="path328" /><path
         d="m 2945.21,4722.45 c 22.79,-91.38 -6.06,-682.91 85.31,-880.09 91.37,-197.16 274.12,-785.79 250.08,-844.95 -24.05,-59.17 -281.61,-250.79 -625.19,-155.35 -86.57,24.04 -139.47,302.98 -139.47,302.98 0,0 -62.52,-272.83 -117.58,-294.25 -55.07,-21.41 -382.39,61.19 -422.16,113.19 -39.77,52.01 -61.19,339.56 0,520.05 61.18,180.5 256.96,768.08 260.02,916.33 3.06,148.26 45.89,451.87 45.89,451.87 l 443.1,110.18 220,-239.96"
         style="fill:#e9ecf5;fill-opacity:1;fill-rule:nonzero;stroke:none"
         id="path330" /><path
         d="m 2171.98,4692.4 c 0,0 -140.26,-330.39 -134.37,-452.75 5.89,-122.37 134.37,-241.68 134.37,-241.68 l 137.66,614.89 -137.66,79.54"
         style="fill:#e9ecf5;fill-opacity:1;fill-rule:nonzero;stroke:none"
         id="path332" /><path
         d="m 3367.65,4409.03 c -6.21,0 -12.4,0.31 -18.55,0.95 -81.78,8.52 -120.46,86.01 -169.43,184.13 -23.82,47.75 -50.83,101.86 -86.53,155.02 -104.33,155.33 -378.97,231.91 -381.73,232.67 -5.33,1.45 -8.47,6.95 -7.01,12.28 1.45,5.32 6.95,8.48 12.28,7 0.71,-0.19 71.75,-19.8 154.96,-58.87 112.34,-52.75 192.45,-113.96 238.1,-181.93 36.42,-54.23 63.73,-108.96 87.83,-157.24 48.04,-96.25 82.74,-165.79 153.6,-173.18 109.22,-11.31 239.9,97.83 241.21,98.93 4.23,3.57 10.53,3.03 14.09,-1.18 3.56,-4.22 3.04,-10.53 -1.18,-14.09 -5.31,-4.49 -124.98,-104.49 -237.64,-104.49"
         style="fill:#ffffff;fill-opacity:1;fill-rule:nonzero;stroke:none"
         id="path334" /><path
         d="m 2894.11,5540.54 c 93.31,-63.13 44.45,-214.86 -32.11,-279.07 -76.56,-64.21 -138.29,-163 -122.24,-242.03 16.05,-79.02 -3.71,-209.91 -109.9,-214.86 -106.2,-4.93 -163,-98.78 -163,-160.52 0,-61.74 -69.15,-163 -256.84,-106.19 -187.69,56.8 -246.96,133.36 -237.09,202.51 9.88,69.15 76.56,64.2 125.96,121.01 49.39,56.8 -22.23,96.32 64.21,185.22 86.44,88.91 217.32,86.44 222.27,155.59 4.93,69.15 -29.64,271.66 93.84,372.91 123.48,101.26 246.96,79.03 414.9,-34.57"
         style="fill:#3d3d3d;fill-opacity:1;fill-rule:nonzero;stroke:none"
         id="path336" /><path
         d="m 2966.44,4220.81 c -1.44,0 -2.9,0.31 -4.29,0.97 -5.31,2.53 -130.96,63.38 -211.57,192.99 -2.92,4.68 -1.48,10.85 3.2,13.77 4.69,2.92 10.85,1.48 13.78,-3.21 77.54,-124.69 201.94,-184.9 203.18,-185.49 4.99,-2.37 7.11,-8.34 4.73,-13.33 -1.71,-3.6 -5.29,-5.7 -9.03,-5.7"
         style="fill:#b7c8f4;fill-opacity:1;fill-rule:nonzero;stroke:none"
         id="path338" /><path
         d="m 2152.68,4027.07 c -0.93,0 -1.88,0.13 -2.82,0.4 -5.29,1.55 -8.34,7.11 -6.79,12.4 54.06,184.92 82.03,306.27 83.15,360.7 0.11,5.51 4.84,9.82 10.21,9.79 5.52,-0.12 9.9,-4.69 9.79,-10.2 -1.16,-56.2 -29.4,-179.3 -83.95,-365.89 -1.28,-4.37 -5.27,-7.2 -9.59,-7.2"
         style="fill:#b7c8f4;fill-opacity:1;fill-rule:nonzero;stroke:none"
         id="path340" /><path
         d="m 2157.15,4568.29 c -4.89,0 -9.16,3.58 -9.88,8.57 -0.8,5.46 2.99,10.53 8.46,11.32 88.05,12.74 165.45,81.7 188.23,167.69 3.85,14.53 6.62,30.35 9.29,45.64 7.93,45.28 16.13,92.1 53.06,121.14 22.77,17.91 50.75,23.78 77.8,29.45 19.87,4.17 38.64,8.11 55.43,16.42 34.8,17.23 61.73,55.92 72.05,103.48 9.61,44.33 5.61,90.88 1.74,135.89 -0.47,5.5 3.6,10.35 9.11,10.82 5.5,0.58 10.34,-3.6 10.81,-9.11 4,-46.49 8.13,-94.56 -2.11,-141.84 -11.77,-54.25 -41.92,-96.96 -82.73,-117.16 -19.07,-9.45 -39.97,-13.83 -60.19,-18.08 -25.94,-5.44 -50.45,-10.58 -69.55,-25.59 -30.92,-24.31 -38.1,-65.38 -45.72,-108.86 -2.74,-15.72 -5.59,-31.97 -9.65,-47.31 -24.78,-93.53 -108.95,-168.52 -204.71,-182.37 l -1.44,-0.1"
         style="fill:#656e87;fill-opacity:1;fill-rule:nonzero;stroke:none"
         id="path342" /><path
         d="m 2015.68,4637.66 c -4.89,0 -9.16,3.59 -9.88,8.57 -0.8,5.46 2.99,10.53 8.46,11.32 88.05,12.74 165.45,81.7 188.23,167.7 3.85,14.52 6.62,30.34 9.29,45.64 7.93,45.27 16.13,92.09 53.06,121.13 22.77,17.91 50.75,23.78 77.8,29.45 19.87,4.17 38.63,8.11 55.43,16.42 19.66,9.74 37.01,26.27 50.15,47.8 2.88,4.71 9.04,6.21 13.74,3.32 4.71,-2.87 6.2,-9.02 3.33,-13.74 -15.11,-24.76 -35.29,-43.89 -58.35,-55.3 -19.07,-9.44 -39.98,-13.83 -60.19,-18.07 -25.95,-5.44 -50.45,-10.59 -69.55,-25.6 -30.92,-24.31 -38.1,-65.38 -45.72,-108.86 -2.74,-15.72 -5.59,-31.97 -9.65,-47.31 -24.78,-93.52 -108.95,-168.51 -204.71,-182.37 l -1.44,-0.1"
         style="fill:#656e87;fill-opacity:1;fill-rule:nonzero;stroke:none"
         id="path344" /><path
         d="m 2879.99,5242.09 -1.07,0.06 c -5.49,0.58 -9.47,5.51 -8.89,11 l 6.9,65.04 c 0.58,5.49 5.5,9.42 11,8.89 5.5,-0.58 9.48,-5.5 8.9,-11 l -6.91,-65.04 c -0.54,-5.13 -4.89,-8.95 -9.93,-8.95"
         style="fill:#3d3d3d;fill-opacity:1;fill-rule:nonzero;stroke:none"
         id="path346" /><path
         d="m 2891.63,5097.68 -1.82,0.17 c -1.27,0.23 -31.54,5.96 -52,25.5 -4,3.81 -4.14,10.15 -0.32,14.14 3.8,4 10.14,4.15 14.14,0.32 16.17,-15.45 41.53,-20.25 41.79,-20.3 5.43,-0.99 9.03,-6.2 8.03,-11.63 -0.88,-4.83 -5.09,-8.2 -9.82,-8.2"
         style="fill:#3d3d3d;fill-opacity:1;fill-rule:nonzero;stroke:none"
         id="path348" /><path
         d="m 6385.56,2102.19 c -25.04,54.9 -43.05,114.6 -39.35,174.83 3.71,60.23 31.92,121.1 82.91,153.36 49.98,31.62 114.76,32.72 164.54,64.65 28.75,18.45 50.69,46.09 79.41,64.59 28.71,18.5 70.23,25.43 94.88,1.77 25.87,-24.85 18.18,-69.87 -4.27,-97.85 -22.45,-27.97 -55.5,-44.91 -83.76,-67 -81.81,-63.95 -121.47,-177.34 -97.35,-278.35 l -197.01,-16"
         style="fill:#fa8aa4;fill-opacity:1;fill-rule:nonzero;stroke:none"
         id="path350" /><path
         d="m 6465.37,2128.75 c -3.72,0 -7.29,2.08 -9.01,5.65 -26.04,53.98 -22.28,123.04 9.58,175.96 32.12,53.4 86.8,87.2 135.05,117.01 4.67,2.91 10.85,1.46 13.76,-3.25 2.9,-4.7 1.44,-10.86 -3.26,-13.76 -46.3,-28.62 -98.79,-61.06 -128.42,-110.31 -28.46,-47.3 -31.88,-108.9 -8.7,-156.95 2.4,-4.98 0.31,-10.96 -4.66,-13.35 -1.41,-0.68 -2.88,-1 -4.34,-1"
         style="fill:#fa5a7f;fill-opacity:1;fill-rule:nonzero;stroke:none"
         id="path352" /><path
         d="m 6186.98,2108.27 c -88.59,55.66 -134.05,171.96 -106.68,272.94 15.41,56.86 51.48,110.96 43.91,169.38 -4.03,31.11 -20.22,59.15 -29.87,88.99 -9.65,29.84 -11.46,66.02 9.64,89.23 21.22,23.32 59.42,24.54 87.3,9.82 27.87,-14.71 47.03,-41.85 61.64,-69.78 37.9,-72.43 51.93,-157.09 39.43,-237.87 -8.1,-52.45 -27.1,-104.17 -22.59,-157.06 4.53,-53.33 32.42,-101.47 59.62,-147.56 l -142.4,-18.09"
         style="fill:#fa8aa4;fill-opacity:1;fill-rule:nonzero;stroke:none"
         id="path354" /><path
         d="m 6225.76,2130.73 c -2.14,0 -4.3,0.69 -6.12,2.1 -62.66,48.7 -89.22,138.45 -63.17,213.4 4.97,14.27 11.59,27.81 17.98,40.91 6.34,12.95 12.32,25.18 16.87,38.12 4.87,13.83 14.3,48.72 -3.25,74.03 -3.15,4.53 -2.02,10.76 2.53,13.91 4.51,3.16 10.77,2.01 13.91,-2.53 16.05,-23.14 18.12,-56.7 5.68,-92.05 -4.94,-14.03 -11.46,-27.37 -17.77,-40.27 -6.42,-13.14 -12.49,-25.56 -17.06,-38.68 -23.32,-67.11 0.46,-147.45 56.54,-191.04 4.37,-3.4 5.16,-9.67 1.77,-14.03 -1.97,-2.54 -4.92,-3.87 -7.91,-3.87"
         style="fill:#fa5a7f;fill-opacity:1;fill-rule:nonzero;stroke:none"
         id="path356" /><path
         d="m 6201.45,2159.84 c -36.8,15.24 -49.79,63.85 -38.3,101.99 11.49,38.13 40.7,67.94 69.16,95.79 28.47,27.85 58.19,56.87 71.22,94.51 25.3,73.12 -19.4,155.64 1.8,230.07 19.45,68.24 88.08,109.58 154.13,135.51 26.91,10.55 55.11,19.84 84.01,18.89 28.88,-0.95 58.85,-13.91 73.34,-38.93 23.04,-39.86 -0.69,-90.48 -29.95,-126.02 -29.27,-35.54 -66.09,-69.65 -72.28,-115.27 -5.5,-40.45 14.77,-79.31 24.97,-118.83 16.47,-63.76 5.81,-134.05 -28.79,-190.08 -22.24,-36.01 -53.33,-65.56 -80.17,-98.27 -26.86,-32.72 -50.32,-70.94 -52.56,-113.2 l -176.58,123.84"
         style="fill:#fa5a7f;fill-opacity:1;fill-rule:nonzero;stroke:none"
         id="path358" /><path
         d="m 6315.65,2129.05 c -3.57,0 -7.04,1.93 -8.83,5.31 -22.82,42.84 -19.8,100.08 8.73,165.56 6.23,14.29 13.19,28.49 19.94,42.23 17.39,35.45 33.82,68.92 39.84,105.84 3.69,22.58 3.26,45.27 2.81,69.3 -0.25,13.81 -0.51,28.09 0.08,42.23 2.07,49.33 16.12,86.31 41.72,109.94 4.03,3.72 10.37,3.5 14.13,-0.57 3.74,-4.06 3.49,-10.38 -0.57,-14.13 -21.58,-19.91 -33.45,-52.23 -35.3,-96.08 -0.57,-13.54 -0.31,-27.51 -0.06,-41.01 0.45,-23.86 0.91,-48.54 -3.06,-72.9 -6.52,-39.85 -24.37,-76.23 -41.64,-111.43 -6.64,-13.55 -13.51,-27.54 -19.55,-41.41 -18.14,-41.62 -34.49,-101.1 -9.42,-148.18 2.6,-4.87 0.74,-10.93 -4.13,-13.53 -1.49,-0.79 -3.1,-1.17 -4.69,-1.17"
         style="fill:#fa8aa4;fill-opacity:1;fill-rule:nonzero;stroke:none"
         id="path360" /><path
         d="m 6624.38,2165.21 h -561.05 l 65.33,-561.04 h 404.24 l 91.48,561.04"
         style="fill:#87a0f9;fill-opacity:1;fill-rule:nonzero;stroke:none"
         id="path362" /><path
         d="m 11154.8,2937 c -128.1,143.71 -20.4,258.68 -1.2,474.26 19.2,215.57 -135.6,330.55 -316.2,330.55 -166.5,0 -335.3,-114.98 -316.1,-330.55 19.1,-215.58 126.9,-330.55 -1.3,-474.26 -128.1,-143.71 -223.9,-570.79 317.4,-570.79 541.4,0 445.5,427.08 317.4,570.79"
         style="fill:#fa8aa4;fill-opacity:1;fill-rule:nonzero;stroke:none"
         id="path364" /><path
         d="m 10837.4,1899.76 c -5.5,0 -10,4.47 -10,10 V 3359.3 c 0,5.52 4.5,10 10,10 5.5,0 10,-4.48 10,-10 V 1909.76 c 0,-5.53 -4.5,-10 -10,-10"
         style="fill:#fa5a7f;fill-opacity:1;fill-rule:nonzero;stroke:none"
         id="path366" /><path
         d="m 10825.5,3120.3 c -27.4,0 -92.5,4.33 -133.6,42.56 -23.3,21.67 -35.1,50.67 -35.1,86.18 0,5.53 4.5,10 10,10 5.5,0 10,-4.47 10,-10 0,-29.71 9.7,-53.77 28.7,-71.49 45.5,-42.43 130.3,-36.99 131.2,-36.94 5.6,0.43 10.3,-3.75 10.7,-9.26 0.4,-5.51 -3.8,-10.3 -9.3,-10.69 -0.8,-0.05 -5.4,-0.36 -12.6,-0.36"
         style="fill:#fa5a7f;fill-opacity:1;fill-rule:nonzero;stroke:none"
         id="path368" /><path
         d="m 10859.5,2662.35 c -13.3,0 -21.9,0.88 -23.2,1.02 -5.5,0.59 -9.4,5.53 -8.8,11.01 0.6,5.49 5.4,9.52 11,8.87 1,-0.1 102.4,-10.23 164.9,45.87 32.8,29.52 49.5,72.57 49.5,127.94 0,5.53 4.5,10 10,10 5.5,0 10,-4.47 10,-10 0,-61.34 -18.9,-109.41 -56.3,-142.9 -50.5,-45.33 -121,-51.81 -157.1,-51.81"
         style="fill:#fa5a7f;fill-opacity:1;fill-rule:nonzero;stroke:none"
         id="path370" /><path
         d="M 3404.57,5812.58 H 1957.9 c -49.49,0 -89.6,40.12 -89.6,89.61 v 782.56 c 0,49.48 40.11,89.6 89.6,89.6 h 1446.67 c 49.48,0 89.6,-40.12 89.6,-89.6 v -782.56 c 0,-49.49 -40.12,-89.61 -89.6,-89.61"
         style="fill:#f3f6ff;fill-opacity:1;fill-rule:nonzero;stroke:none"
         id="path372" /><path
         d="M 3404.57,5802.58 H 1957.9 c -54.92,0 -99.6,44.69 -99.6,99.61 v 635.14 c 0,5.53 4.47,10 10,10 5.52,0 10,-4.47 10,-10 v -635.14 c 0,-43.9 35.7,-79.61 79.6,-79.61 h 1446.67 c 5.52,0 10,-4.47 10,-10 0,-5.52 -4.48,-10 -10,-10"
         style="fill:#ffffff;fill-opacity:1;fill-rule:nonzero;stroke:none"
         id="path374" /><path
         d="M 3404.57,6774.35 H 1957.9 c -49.49,0 -89.6,-40.12 -89.6,-89.6 v -84.2 h 1625.87 v 84.2 c 0,49.48 -40.12,89.6 -89.6,89.6"
         style="fill:#0055fe;fill-opacity:1;fill-rule:nonzero;stroke:none"
         id="path376" /><path
         d="m 2013.02,6687.45 c 0,-16.29 -13.21,-29.5 -29.5,-29.5 -16.29,0 -29.5,13.21 -29.5,29.5 0,16.3 13.21,29.5 29.5,29.5 16.29,0 29.5,-13.2 29.5,-29.5"
         style="fill:#87a0f9;fill-opacity:1;fill-rule:nonzero;stroke:none"
         id="path378" /><path
         d="m 2010.4,6456.21 c 0,-14.84 -12.04,-26.88 -26.88,-26.88 -14.85,0 -26.88,12.04 -26.88,26.88 0,14.85 12.03,26.88 26.88,26.88 14.84,0 26.88,-12.03 26.88,-26.88"
         style="fill:#9cb0e6;fill-opacity:1;fill-rule:nonzero;stroke:none"
         id="path380" /><path
         d="m 2148.5,6687.45 c 0,-16.29 -13.21,-29.5 -29.5,-29.5 -16.29,0 -29.5,13.21 -29.5,29.5 0,16.3 13.21,29.5 29.5,29.5 16.29,0 29.5,-13.2 29.5,-29.5"
         style="fill:#f3f6ff;fill-opacity:1;fill-rule:nonzero;stroke:none"
         id="path382" /><path
         d="m 2283.98,6687.45 c 0,-16.29 -13.21,-29.5 -29.5,-29.5 -16.29,0 -29.5,13.21 -29.5,29.5 0,16.3 13.21,29.5 29.5,29.5 16.29,0 29.5,-13.2 29.5,-29.5"
         style="fill:#fa3765;fill-opacity:1;fill-rule:nonzero;stroke:none"
         id="path384" /><path
         d="m 2412.41,6429.33 h -282.55 c -14.85,0 -26.88,12.04 -26.88,26.88 0,14.84 12.03,26.88 26.88,26.88 h 282.55 c 14.85,0 26.88,-12.04 26.88,-26.88 0,-14.84 -12.03,-26.88 -26.88,-26.88"
         style="fill:#9cb0e6;fill-opacity:1;fill-rule:nonzero;stroke:none"
         id="path386" /><path
         d="M 2833.55,6429.33 H 2551 c -14.85,0 -26.88,12.04 -26.88,26.88 0,14.84 12.03,26.88 26.88,26.88 h 282.55 c 14.85,0 26.88,-12.04 26.88,-26.88 0,-14.84 -12.03,-26.88 -26.88,-26.88"
         style="fill:#9cb0e6;fill-opacity:1;fill-rule:nonzero;stroke:none"
         id="path388" /><path
         d="m 2010.4,6312.85 c 0,-14.85 -12.04,-26.89 -26.88,-26.89 -14.85,0 -26.88,12.04 -26.88,26.89 0,14.84 12.03,26.88 26.88,26.88 14.84,0 26.88,-12.04 26.88,-26.88"
         style="fill:#9cb0e6;fill-opacity:1;fill-rule:nonzero;stroke:none"
         id="path390" /><path
         d="m 2286.97,6285.96 h -157.11 c -14.85,0 -26.88,12.03 -26.88,26.88 0,14.86 12.03,26.89 26.88,26.89 h 157.11 c 14.85,0 26.88,-12.03 26.88,-26.89 0,-14.85 -12.03,-26.88 -26.88,-26.88"
         style="fill:#9cb0e6;fill-opacity:1;fill-rule:nonzero;stroke:none"
         id="path392" /><path
         d="m 3191.97,6285.96 h -766.41 c -14.85,0 -26.88,12.03 -26.88,26.88 0,14.86 12.03,26.89 26.88,26.89 h 766.41 c 14.85,0 26.88,-12.03 26.88,-26.89 0,-14.85 -12.03,-26.88 -26.88,-26.88"
         style="fill:#9cb0e6;fill-opacity:1;fill-rule:nonzero;stroke:none"
         id="path394" /><path
         d="m 2010.4,6160.52 c 0,-14.85 -12.04,-26.88 -26.88,-26.88 -14.85,0 -26.88,12.03 -26.88,26.88 0,14.84 12.03,26.88 26.88,26.88 14.84,0 26.88,-12.04 26.88,-26.88"
         style="fill:#9cb0e6;fill-opacity:1;fill-rule:nonzero;stroke:none"
         id="path396" /><path
         d="m 2548.4,6133.63 h -418.54 c -14.85,0 -26.88,12.04 -26.88,26.89 0,14.85 12.03,26.88 26.88,26.88 h 418.54 c 14.85,0 26.88,-12.03 26.88,-26.88 0,-14.85 -12.03,-26.89 -26.88,-26.89"
         style="fill:#9cb0e6;fill-opacity:1;fill-rule:nonzero;stroke:none"
         id="path398" /></g></g></svg>
